<?xml version="1.0" encoding="utf-8" standalone="no"?>
<!DOCTYPE svg PUBLIC "-//W3C//DTD SVG 1.1//EN"
  "http://www.w3.org/Graphics/SVG/1.1/DTD/svg11.dtd">
<svg xmlns:xlink="http://www.w3.org/1999/xlink" width="851.777147pt" height="495.535986pt" viewBox="0 0 851.777147 495.535986" xmlns="http://www.w3.org/2000/svg" version="1.1">
 <metadata>
  <rdf:RDF xmlns:dc="http://purl.org/dc/elements/1.1/" xmlns:cc="http://creativecommons.org/ns#" xmlns:rdf="http://www.w3.org/1999/02/22-rdf-syntax-ns#">
   <cc:Work>
    <dc:type rdf:resource="http://purl.org/dc/dcmitype/StillImage"/>
    <dc:date>2026-04-18T17:33:52.155854</dc:date>
    <dc:format>image/svg+xml</dc:format>
    <dc:creator>
     <cc:Agent>
      <dc:title>Matplotlib v3.6.3, https://matplotlib.org/</dc:title>
     </cc:Agent>
    </dc:creator>
   </cc:Work>
  </rdf:RDF>
 </metadata>
 <defs>
  <style type="text/css">*{stroke-linejoin: round; stroke-linecap: butt}</style>
 </defs>
 <g id="figure_1">
  <g id="patch_1">
   <path d="M 0 495.535986 
L 851.777147 495.535986 
L 851.777147 0 
L 0 0 
z
" style="fill: #ffffff"/>
  </g>
  <g id="axes_1">
   <g id="patch_2">
    <path d="M 83.248446 340.907468 
L 844.577147 340.907468 
L 844.577147 25.3575 
L 83.248446 25.3575 
z
" style="fill: #ffffff"/>
   </g>
   <g id="patch_3">
    <path d="M 102.281664 340.907468 
L 140.348099 340.907468 
L 140.348099 40.383689 
L 102.281664 40.383689 
z
" clip-path="url(#p8c09a88a4e)" style="fill: #fdb813"/>
   </g>
   <g id="patch_4">
    <path d="M 178.414534 340.907468 
L 216.480969 340.907468 
L 216.480969 252.357861 
L 178.414534 252.357861 
z
" clip-path="url(#p8c09a88a4e)" style="fill: #fdb813"/>
   </g>
   <g id="patch_5">
    <path d="M 254.547404 340.907468 
L 292.613839 340.907468 
L 292.613839 261.679079 
L 254.547404 261.679079 
z
" clip-path="url(#p8c09a88a4e)" style="fill: #fdb813"/>
   </g>
   <g id="patch_6">
    <path d="M 330.680274 340.907468 
L 368.746709 340.907468 
L 368.746709 287.067048 
L 330.680274 287.067048 
z
" clip-path="url(#p8c09a88a4e)" style="fill: #fdb813"/>
   </g>
   <g id="patch_7">
    <path d="M 406.813144 340.907468 
L 444.879579 340.907468 
L 444.879579 294.524153 
L 406.813144 294.524153 
z
" clip-path="url(#p8c09a88a4e)" style="fill: #fdb813"/>
   </g>
   <g id="patch_8">
    <path d="M 482.946014 340.907468 
L 521.012449 340.907468 
L 521.012449 298.336902 
L 482.946014 298.336902 
z
" clip-path="url(#p8c09a88a4e)" style="fill: #fdb813"/>
   </g>
   <g id="patch_9">
    <path d="M 559.078884 340.907468 
L 597.145319 340.907468 
L 597.145319 303.204562 
L 559.078884 303.204562 
z
" clip-path="url(#p8c09a88a4e)" style="fill: #fdb813"/>
   </g>
   <g id="patch_10">
    <path d="M 635.211755 340.907468 
L 673.27819 340.907468 
L 673.27819 304.623122 
L 635.211755 304.623122 
z
" clip-path="url(#p8c09a88a4e)" style="fill: #fdb813"/>
   </g>
   <g id="patch_11">
    <path d="M 711.344625 340.907468 
L 749.41106 340.907468 
L 749.41106 309.727973 
L 711.344625 309.727973 
z
" clip-path="url(#p8c09a88a4e)" style="fill: #fdb813"/>
   </g>
   <g id="patch_12">
    <path d="M 787.477495 340.907468 
L 825.54393 340.907468 
L 825.54393 311.786687 
L 787.477495 311.786687 
z
" clip-path="url(#p8c09a88a4e)" style="fill: #fdb813"/>
   </g>
   <g id="matplotlib.axis_1">
    <g id="xtick_1">
     <g id="line2d_1">
      <defs>
       <path id="m1e0098fcc3" d="M 0 0 
L 0 3.5 
" style="stroke: #000000; stroke-width: 0.8"/>
      </defs>
      <g>
       <use xlink:href="#m1e0098fcc3" x="121.314881" y="340.907468" style="stroke: #000000; stroke-width: 0.8"/>
      </g>
     </g>
     <g id="text_1">
      <!-- Driver Inattention/Distraction -->
      <g transform="translate(12.572907 460.551788) rotate(-45) scale(0.1 -0.1)">
       <defs>
        <path id="DejaVuSerif-44" d="M 1581 331 
L 2163 331 
Q 3072 331 3558 850 
Q 4044 1369 4044 2338 
Q 4044 3306 3559 3818 
Q 3075 4331 2163 4331 
L 1581 4331 
L 1581 331 
z
M 353 0 
L 353 331 
L 947 331 
L 947 4331 
L 353 4331 
L 353 4666 
L 2209 4666 
Q 3416 4666 4089 4050 
Q 4763 3434 4763 2338 
Q 4763 1238 4088 619 
Q 3413 0 2209 0 
L 353 0 
z
" transform="scale(0.015625)"/>
        <path id="DejaVuSerif-72" d="M 3059 3328 
L 3059 2497 
L 2728 2497 
Q 2713 2744 2591 2866 
Q 2469 2988 2234 2988 
Q 1809 2988 1582 2694 
Q 1356 2400 1356 1850 
L 1356 331 
L 2022 331 
L 2022 0 
L 263 0 
L 263 331 
L 781 331 
L 781 2994 
L 231 2994 
L 231 3322 
L 1356 3322 
L 1356 2731 
Q 1525 3078 1790 3245 
Q 2056 3413 2438 3413 
Q 2578 3413 2733 3391 
Q 2888 3369 3059 3328 
z
" transform="scale(0.015625)"/>
        <path id="DejaVuSerif-69" d="M 622 4353 
Q 622 4497 726 4603 
Q 831 4709 978 4709 
Q 1122 4709 1226 4603 
Q 1331 4497 1331 4353 
Q 1331 4206 1228 4103 
Q 1125 4000 978 4000 
Q 831 4000 726 4103 
Q 622 4206 622 4353 
z
M 1356 331 
L 1900 331 
L 1900 0 
L 231 0 
L 231 331 
L 781 331 
L 781 2988 
L 231 2988 
L 231 3322 
L 1356 3322 
L 1356 331 
z
" transform="scale(0.015625)"/>
        <path id="DejaVuSerif-76" d="M 1581 0 
L 359 2988 
L -19 2988 
L -19 3322 
L 1509 3322 
L 1509 2988 
L 978 2988 
L 1913 703 
L 2847 2988 
L 2350 2988 
L 2350 3322 
L 3597 3322 
L 3597 2988 
L 3225 2988 
L 2003 0 
L 1581 0 
z
" transform="scale(0.015625)"/>
        <path id="DejaVuSerif-65" d="M 3469 1600 
L 991 1600 
L 991 1575 
Q 991 903 1244 561 
Q 1497 219 1991 219 
Q 2369 219 2611 417 
Q 2853 616 2950 1006 
L 3413 1006 
Q 3275 459 2904 184 
Q 2534 -91 1931 -91 
Q 1203 -91 761 389 
Q 319 869 319 1663 
Q 319 2450 753 2931 
Q 1188 3413 1894 3413 
Q 2647 3413 3050 2948 
Q 3453 2484 3469 1600 
z
M 2791 1931 
Q 2772 2513 2545 2808 
Q 2319 3103 1894 3103 
Q 1497 3103 1269 2806 
Q 1041 2509 991 1931 
L 2791 1931 
z
" transform="scale(0.015625)"/>
        <path id="DejaVuSerif-20" transform="scale(0.015625)"/>
        <path id="DejaVuSerif-49" d="M 1581 331 
L 2175 331 
L 2175 0 
L 353 0 
L 353 331 
L 947 331 
L 947 4331 
L 353 4331 
L 353 4666 
L 2175 4666 
L 2175 4331 
L 1581 4331 
L 1581 331 
z
" transform="scale(0.015625)"/>
        <path id="DejaVuSerif-6e" d="M 263 0 
L 263 331 
L 781 331 
L 781 2988 
L 231 2988 
L 231 3322 
L 1356 3322 
L 1356 2731 
Q 1516 3069 1770 3241 
Q 2025 3413 2363 3413 
Q 2913 3413 3172 3097 
Q 3431 2781 3431 2113 
L 3431 331 
L 3944 331 
L 3944 0 
L 2356 0 
L 2356 331 
L 2853 331 
L 2853 1931 
Q 2853 2541 2703 2767 
Q 2553 2994 2175 2994 
Q 1775 2994 1565 2701 
Q 1356 2409 1356 1850 
L 1356 331 
L 1856 331 
L 1856 0 
L 263 0 
z
" transform="scale(0.015625)"/>
        <path id="DejaVuSerif-61" d="M 2547 1044 
L 2547 1747 
L 1806 1747 
Q 1378 1747 1168 1562 
Q 959 1378 959 997 
Q 959 650 1171 447 
Q 1384 244 1747 244 
Q 2106 244 2326 466 
Q 2547 688 2547 1044 
z
M 3122 2075 
L 3122 331 
L 3634 331 
L 3634 0 
L 2547 0 
L 2547 359 
Q 2356 128 2106 18 
Q 1856 -91 1522 -91 
Q 969 -91 644 203 
Q 319 497 319 997 
Q 319 1513 691 1797 
Q 1063 2081 1741 2081 
L 2547 2081 
L 2547 2309 
Q 2547 2688 2317 2895 
Q 2088 3103 1672 3103 
Q 1328 3103 1125 2947 
Q 922 2791 872 2484 
L 575 2484 
L 575 3156 
Q 875 3284 1158 3348 
Q 1441 3413 1709 3413 
Q 2400 3413 2761 3070 
Q 3122 2728 3122 2075 
z
" transform="scale(0.015625)"/>
        <path id="DejaVuSerif-74" d="M 691 2988 
L 184 2988 
L 184 3322 
L 691 3322 
L 691 4353 
L 1269 4353 
L 1269 3322 
L 2350 3322 
L 2350 2988 
L 1269 2988 
L 1269 878 
Q 1269 456 1350 337 
Q 1431 219 1650 219 
Q 1875 219 1978 351 
Q 2081 484 2088 781 
L 2522 781 
Q 2497 328 2275 118 
Q 2053 -91 1600 -91 
Q 1103 -91 897 129 
Q 691 350 691 878 
L 691 2988 
z
" transform="scale(0.015625)"/>
        <path id="DejaVuSerif-6f" d="M 1925 219 
Q 2388 219 2623 584 
Q 2859 950 2859 1663 
Q 2859 2375 2623 2739 
Q 2388 3103 1925 3103 
Q 1463 3103 1227 2739 
Q 991 2375 991 1663 
Q 991 950 1228 584 
Q 1466 219 1925 219 
z
M 1925 -91 
Q 1200 -91 759 389 
Q 319 869 319 1663 
Q 319 2456 758 2934 
Q 1197 3413 1925 3413 
Q 2653 3413 3092 2934 
Q 3531 2456 3531 1663 
Q 3531 869 3092 389 
Q 2653 -91 1925 -91 
z
" transform="scale(0.015625)"/>
        <path id="DejaVuSerif-2f" d="M 1656 4666 
L 2156 4666 
L 500 -594 
L 0 -594 
L 1656 4666 
z
" transform="scale(0.015625)"/>
        <path id="DejaVuSerif-73" d="M 359 184 
L 359 959 
L 691 959 
Q 703 588 923 403 
Q 1144 219 1575 219 
Q 1963 219 2166 364 
Q 2369 509 2369 788 
Q 2369 1006 2220 1140 
Q 2072 1275 1594 1428 
L 1178 1569 
Q 750 1706 558 1912 
Q 366 2119 366 2438 
Q 366 2894 700 3153 
Q 1034 3413 1625 3413 
Q 1888 3413 2178 3344 
Q 2469 3275 2778 3144 
L 2778 2419 
L 2447 2419 
Q 2434 2741 2221 2922 
Q 2009 3103 1644 3103 
Q 1281 3103 1095 2975 
Q 909 2847 909 2591 
Q 909 2381 1050 2254 
Q 1191 2128 1613 1997 
L 2069 1856 
Q 2541 1709 2748 1489 
Q 2956 1269 2956 922 
Q 2956 450 2595 179 
Q 2234 -91 1600 -91 
Q 1278 -91 972 -22 
Q 666 47 359 184 
z
" transform="scale(0.015625)"/>
        <path id="DejaVuSerif-63" d="M 3291 997 
Q 3169 466 2822 187 
Q 2475 -91 1925 -91 
Q 1200 -91 759 389 
Q 319 869 319 1663 
Q 319 2459 759 2936 
Q 1200 3413 1925 3413 
Q 2241 3413 2553 3339 
Q 2866 3266 3181 3116 
L 3181 2266 
L 2847 2266 
Q 2781 2703 2561 2903 
Q 2341 3103 1931 3103 
Q 1466 3103 1228 2742 
Q 991 2381 991 1663 
Q 991 944 1227 581 
Q 1463 219 1931 219 
Q 2303 219 2525 412 
Q 2747 606 2828 997 
L 3291 997 
z
" transform="scale(0.015625)"/>
       </defs>
       <use xlink:href="#DejaVuSerif-44"/>
       <use xlink:href="#DejaVuSerif-72" x="80.175781"/>
       <use xlink:href="#DejaVuSerif-69" x="127.978516"/>
       <use xlink:href="#DejaVuSerif-76" x="159.960938"/>
       <use xlink:href="#DejaVuSerif-65" x="216.455078"/>
       <use xlink:href="#DejaVuSerif-72" x="275.634766"/>
       <use xlink:href="#DejaVuSerif-20" x="323.4375"/>
       <use xlink:href="#DejaVuSerif-49" x="355.224609"/>
       <use xlink:href="#DejaVuSerif-6e" x="394.726562"/>
       <use xlink:href="#DejaVuSerif-61" x="459.130859"/>
       <use xlink:href="#DejaVuSerif-74" x="518.75"/>
       <use xlink:href="#DejaVuSerif-74" x="558.935547"/>
       <use xlink:href="#DejaVuSerif-65" x="599.121094"/>
       <use xlink:href="#DejaVuSerif-6e" x="658.300781"/>
       <use xlink:href="#DejaVuSerif-74" x="722.705078"/>
       <use xlink:href="#DejaVuSerif-69" x="762.890625"/>
       <use xlink:href="#DejaVuSerif-6f" x="794.873047"/>
       <use xlink:href="#DejaVuSerif-6e" x="855.078125"/>
       <use xlink:href="#DejaVuSerif-2f" x="919.482422"/>
       <use xlink:href="#DejaVuSerif-44" x="953.173828"/>
       <use xlink:href="#DejaVuSerif-69" x="1033.349609"/>
       <use xlink:href="#DejaVuSerif-73" x="1065.332031"/>
       <use xlink:href="#DejaVuSerif-74" x="1116.650391"/>
       <use xlink:href="#DejaVuSerif-72" x="1156.835938"/>
       <use xlink:href="#DejaVuSerif-61" x="1204.638672"/>
       <use xlink:href="#DejaVuSerif-63" x="1264.257812"/>
       <use xlink:href="#DejaVuSerif-74" x="1320.263672"/>
       <use xlink:href="#DejaVuSerif-69" x="1360.449219"/>
       <use xlink:href="#DejaVuSerif-6f" x="1392.431641"/>
       <use xlink:href="#DejaVuSerif-6e" x="1452.636719"/>
      </g>
     </g>
    </g>
    <g id="xtick_2">
     <g id="line2d_2">
      <g>
       <use xlink:href="#m1e0098fcc3" x="197.447751" y="340.907468" style="stroke: #000000; stroke-width: 0.8"/>
      </g>
     </g>
     <g id="text_2">
      <!-- Failure to Yield Right-of-Way -->
      <g transform="translate(93.591443 455.56558) rotate(-45) scale(0.1 -0.1)">
       <defs>
        <path id="DejaVuSerif-46" d="M 353 0 
L 353 331 
L 947 331 
L 947 4331 
L 353 4331 
L 353 4666 
L 4172 4666 
L 4172 3628 
L 3788 3628 
L 3788 4281 
L 1581 4281 
L 1581 2719 
L 3175 2719 
L 3175 3303 
L 3559 3303 
L 3559 1753 
L 3175 1753 
L 3175 2338 
L 1581 2338 
L 1581 331 
L 2328 331 
L 2328 0 
L 353 0 
z
" transform="scale(0.015625)"/>
        <path id="DejaVuSerif-6c" d="M 1313 331 
L 1856 331 
L 1856 0 
L 184 0 
L 184 331 
L 738 331 
L 738 4531 
L 184 4531 
L 184 4863 
L 1313 4863 
L 1313 331 
z
" transform="scale(0.015625)"/>
        <path id="DejaVuSerif-75" d="M 2266 3322 
L 3341 3322 
L 3341 331 
L 3884 331 
L 3884 0 
L 2766 0 
L 2766 588 
Q 2606 256 2353 82 
Q 2100 -91 1766 -91 
Q 1213 -91 952 223 
Q 691 538 691 1209 
L 691 2988 
L 172 2988 
L 172 3322 
L 1269 3322 
L 1269 1388 
Q 1269 781 1417 556 
Q 1566 331 1947 331 
Q 2347 331 2556 625 
Q 2766 919 2766 1478 
L 2766 2988 
L 2266 2988 
L 2266 3322 
z
" transform="scale(0.015625)"/>
        <path id="DejaVuSerif-59" d="M 1209 0 
L 1209 331 
L 1806 331 
L 1806 2009 
L 366 4331 
L -72 4331 
L -72 4666 
L 1663 4666 
L 1663 4331 
L 1119 4331 
L 2284 2444 
L 3450 4331 
L 2925 4331 
L 2925 4666 
L 4281 4666 
L 4281 4331 
L 3841 4331 
L 2438 2069 
L 2438 331 
L 3034 331 
L 3034 0 
L 1209 0 
z
" transform="scale(0.015625)"/>
        <path id="DejaVuSerif-64" d="M 3359 331 
L 3909 331 
L 3909 0 
L 2784 0 
L 2784 519 
Q 2616 206 2355 57 
Q 2094 -91 1709 -91 
Q 1097 -91 708 395 
Q 319 881 319 1663 
Q 319 2444 706 2928 
Q 1094 3413 1709 3413 
Q 2094 3413 2355 3264 
Q 2616 3116 2784 2803 
L 2784 4531 
L 2241 4531 
L 2241 4863 
L 3359 4863 
L 3359 331 
z
M 2784 1497 
L 2784 1825 
Q 2784 2422 2554 2737 
Q 2325 3053 1888 3053 
Q 1444 3053 1217 2703 
Q 991 2353 991 1663 
Q 991 975 1217 622 
Q 1444 269 1888 269 
Q 2325 269 2554 583 
Q 2784 897 2784 1497 
z
" transform="scale(0.015625)"/>
        <path id="DejaVuSerif-52" d="M 3066 2316 
Q 3284 2256 3442 2114 
Q 3600 1972 3725 1716 
L 4403 331 
L 4972 331 
L 4972 0 
L 3872 0 
L 3144 1484 
Q 2934 1916 2759 2042 
Q 2584 2169 2278 2169 
L 1581 2169 
L 1581 331 
L 2241 331 
L 2241 0 
L 353 0 
L 353 331 
L 947 331 
L 947 4331 
L 353 4331 
L 353 4666 
L 2719 4666 
Q 3400 4666 3770 4341 
Q 4141 4016 4141 3419 
Q 4141 2938 3870 2661 
Q 3600 2384 3066 2316 
z
M 1581 2503 
L 2503 2503 
Q 2975 2503 3200 2726 
Q 3425 2950 3425 3419 
Q 3425 3888 3200 4109 
Q 2975 4331 2503 4331 
L 1581 4331 
L 1581 2503 
z
" transform="scale(0.015625)"/>
        <path id="DejaVuSerif-67" d="M 3359 2988 
L 3359 72 
Q 3359 -644 2965 -1033 
Q 2572 -1422 1844 -1422 
Q 1516 -1422 1216 -1362 
Q 916 -1303 641 -1184 
L 641 -488 
L 941 -488 
Q 997 -813 1206 -963 
Q 1416 -1113 1806 -1113 
Q 2313 -1113 2548 -827 
Q 2784 -541 2784 72 
L 2784 519 
Q 2616 206 2355 57 
Q 2094 -91 1709 -91 
Q 1097 -91 708 395 
Q 319 881 319 1663 
Q 319 2444 706 2928 
Q 1094 3413 1709 3413 
Q 2094 3413 2355 3264 
Q 2616 3116 2784 2803 
L 2784 3322 
L 3909 3322 
L 3909 2988 
L 3359 2988 
z
M 2784 1825 
Q 2784 2422 2554 2737 
Q 2325 3053 1888 3053 
Q 1444 3053 1217 2703 
Q 991 2353 991 1663 
Q 991 975 1217 622 
Q 1444 269 1888 269 
Q 2325 269 2554 583 
Q 2784 897 2784 1497 
L 2784 1825 
z
" transform="scale(0.015625)"/>
        <path id="DejaVuSerif-68" d="M 263 0 
L 263 331 
L 781 331 
L 781 4531 
L 231 4531 
L 231 4863 
L 1356 4863 
L 1356 2731 
Q 1516 3069 1770 3241 
Q 2025 3413 2363 3413 
Q 2913 3413 3172 3097 
Q 3431 2781 3431 2113 
L 3431 331 
L 3944 331 
L 3944 0 
L 2356 0 
L 2356 331 
L 2853 331 
L 2853 1931 
Q 2853 2541 2704 2764 
Q 2556 2988 2175 2988 
Q 1775 2988 1565 2697 
Q 1356 2406 1356 1850 
L 1356 331 
L 1856 331 
L 1856 0 
L 263 0 
z
" transform="scale(0.015625)"/>
        <path id="DejaVuSerif-2d" d="M 281 1959 
L 1881 1959 
L 1881 1472 
L 281 1472 
L 281 1959 
z
" transform="scale(0.015625)"/>
        <path id="DejaVuSerif-66" d="M 2753 4078 
L 2450 4078 
Q 2447 4313 2317 4434 
Q 2188 4556 1941 4556 
Q 1619 4556 1487 4379 
Q 1356 4203 1356 3750 
L 1356 3322 
L 2284 3322 
L 2284 2988 
L 1356 2988 
L 1356 331 
L 2094 331 
L 2094 0 
L 231 0 
L 231 331 
L 781 331 
L 781 2988 
L 231 2988 
L 231 3322 
L 781 3322 
L 781 3738 
Q 781 4294 1070 4578 
Q 1359 4863 1919 4863 
Q 2128 4863 2337 4825 
Q 2547 4788 2753 4709 
L 2753 4078 
z
" transform="scale(0.015625)"/>
        <path id="DejaVuSerif-57" d="M 4878 0 
L 4366 0 
L 3297 3794 
L 2228 0 
L 1716 0 
L 494 4331 
L 31 4331 
L 31 4666 
L 1734 4666 
L 1734 4331 
L 1153 4331 
L 2125 884 
L 3188 4666 
L 3694 4666 
L 4775 844 
L 5753 4331 
L 5216 4331 
L 5216 4666 
L 6559 4666 
L 6559 4331 
L 6100 4331 
L 4878 0 
z
" transform="scale(0.015625)"/>
        <path id="DejaVuSerif-79" d="M 1381 -609 
L 1600 -56 
L 359 2988 
L -19 2988 
L -19 3322 
L 1509 3322 
L 1509 2988 
L 978 2988 
L 1913 703 
L 2847 2988 
L 2350 2988 
L 2350 3322 
L 3597 3322 
L 3597 2988 
L 3225 2988 
L 1703 -750 
Q 1547 -1138 1356 -1280 
Q 1166 -1422 819 -1422 
Q 672 -1422 517 -1397 
Q 363 -1372 206 -1325 
L 206 -691 
L 500 -691 
Q 519 -903 608 -995 
Q 697 -1088 884 -1088 
Q 1056 -1088 1161 -992 
Q 1266 -897 1381 -609 
z
" transform="scale(0.015625)"/>
       </defs>
       <use xlink:href="#DejaVuSerif-46"/>
       <use xlink:href="#DejaVuSerif-61" x="62.634766"/>
       <use xlink:href="#DejaVuSerif-69" x="122.253906"/>
       <use xlink:href="#DejaVuSerif-6c" x="154.236328"/>
       <use xlink:href="#DejaVuSerif-75" x="186.21875"/>
       <use xlink:href="#DejaVuSerif-72" x="250.623047"/>
       <use xlink:href="#DejaVuSerif-65" x="298.425781"/>
       <use xlink:href="#DejaVuSerif-20" x="357.605469"/>
       <use xlink:href="#DejaVuSerif-74" x="389.392578"/>
       <use xlink:href="#DejaVuSerif-6f" x="429.578125"/>
       <use xlink:href="#DejaVuSerif-20" x="489.783203"/>
       <use xlink:href="#DejaVuSerif-59" x="521.570312"/>
       <use xlink:href="#DejaVuSerif-69" x="585.835938"/>
       <use xlink:href="#DejaVuSerif-65" x="617.818359"/>
       <use xlink:href="#DejaVuSerif-6c" x="676.998047"/>
       <use xlink:href="#DejaVuSerif-64" x="708.980469"/>
       <use xlink:href="#DejaVuSerif-20" x="772.994141"/>
       <use xlink:href="#DejaVuSerif-52" x="804.78125"/>
       <use xlink:href="#DejaVuSerif-69" x="880.074219"/>
       <use xlink:href="#DejaVuSerif-67" x="912.056641"/>
       <use xlink:href="#DejaVuSerif-68" x="976.070312"/>
       <use xlink:href="#DejaVuSerif-74" x="1040.474609"/>
       <use xlink:href="#DejaVuSerif-2d" x="1080.660156"/>
       <use xlink:href="#DejaVuSerif-6f" x="1114.449219"/>
       <use xlink:href="#DejaVuSerif-66" x="1174.654297"/>
       <use xlink:href="#DejaVuSerif-2d" x="1208.041016"/>
       <use xlink:href="#DejaVuSerif-57" x="1236.330078"/>
       <use xlink:href="#DejaVuSerif-61" x="1330.363281"/>
       <use xlink:href="#DejaVuSerif-79" x="1389.982422"/>
      </g>
     </g>
    </g>
    <g id="xtick_3">
     <g id="line2d_3">
      <g>
       <use xlink:href="#m1e0098fcc3" x="273.580621" y="340.907468" style="stroke: #000000; stroke-width: 0.8"/>
      </g>
     </g>
     <g id="text_3">
      <!-- Following Too Closely -->
      <g transform="translate(193.883058 431.406835) rotate(-45) scale(0.1 -0.1)">
       <defs>
        <path id="DejaVuSerif-77" d="M 3072 3322 
L 3922 728 
L 4672 2988 
L 4191 2988 
L 4191 3322 
L 5394 3322 
L 5394 2988 
L 5025 2988 
L 4038 0 
L 3559 0 
L 2741 2484 
L 1919 0 
L 1459 0 
L 475 2988 
L 103 2988 
L 103 3322 
L 1606 3322 
L 1606 2988 
L 1069 2988 
L 1813 728 
L 2669 3322 
L 3072 3322 
z
" transform="scale(0.015625)"/>
        <path id="DejaVuSerif-54" d="M 1222 0 
L 1222 331 
L 1819 331 
L 1819 4294 
L 447 4294 
L 447 3566 
L 63 3566 
L 63 4666 
L 4206 4666 
L 4206 3566 
L 3822 3566 
L 3822 4294 
L 2450 4294 
L 2450 331 
L 3047 331 
L 3047 0 
L 1222 0 
z
" transform="scale(0.015625)"/>
        <path id="DejaVuSerif-43" d="M 4513 1234 
Q 4306 581 3820 245 
Q 3334 -91 2591 -91 
Q 2134 -91 1743 65 
Q 1353 222 1050 525 
Q 700 875 529 1320 
Q 359 1766 359 2328 
Q 359 3416 987 4083 
Q 1616 4750 2644 4750 
Q 3025 4750 3456 4650 
Q 3888 4550 4384 4347 
L 4384 3272 
L 4031 3272 
Q 3916 3859 3567 4137 
Q 3219 4416 2591 4416 
Q 1844 4416 1459 3886 
Q 1075 3356 1075 2328 
Q 1075 1303 1459 773 
Q 1844 244 2591 244 
Q 3113 244 3450 492 
Q 3788 741 3938 1234 
L 4513 1234 
z
" transform="scale(0.015625)"/>
       </defs>
       <use xlink:href="#DejaVuSerif-46"/>
       <use xlink:href="#DejaVuSerif-6f" x="63.884766"/>
       <use xlink:href="#DejaVuSerif-6c" x="124.089844"/>
       <use xlink:href="#DejaVuSerif-6c" x="156.072266"/>
       <use xlink:href="#DejaVuSerif-6f" x="188.054688"/>
       <use xlink:href="#DejaVuSerif-77" x="248.259766"/>
       <use xlink:href="#DejaVuSerif-69" x="333.855469"/>
       <use xlink:href="#DejaVuSerif-6e" x="365.837891"/>
       <use xlink:href="#DejaVuSerif-67" x="430.242188"/>
       <use xlink:href="#DejaVuSerif-20" x="494.255859"/>
       <use xlink:href="#DejaVuSerif-54" x="526.042969"/>
       <use xlink:href="#DejaVuSerif-6f" x="584.992188"/>
       <use xlink:href="#DejaVuSerif-6f" x="645.197266"/>
       <use xlink:href="#DejaVuSerif-20" x="705.402344"/>
       <use xlink:href="#DejaVuSerif-43" x="737.189453"/>
       <use xlink:href="#DejaVuSerif-6c" x="813.703125"/>
       <use xlink:href="#DejaVuSerif-6f" x="845.685547"/>
       <use xlink:href="#DejaVuSerif-73" x="905.890625"/>
       <use xlink:href="#DejaVuSerif-65" x="957.208984"/>
       <use xlink:href="#DejaVuSerif-6c" x="1016.388672"/>
       <use xlink:href="#DejaVuSerif-79" x="1048.371094"/>
      </g>
     </g>
    </g>
    <g id="xtick_4">
     <g id="line2d_4">
      <g>
       <use xlink:href="#m1e0098fcc3" x="349.713492" y="340.907468" style="stroke: #000000; stroke-width: 0.8"/>
      </g>
     </g>
     <g id="text_4">
      <!-- Backing Unsafely -->
      <g transform="translate(285.478365 415.944398) rotate(-45) scale(0.1 -0.1)">
       <defs>
        <path id="DejaVuSerif-42" d="M 1581 331 
L 2516 331 
Q 3078 331 3337 575 
Q 3597 819 3597 1350 
Q 3597 1878 3339 2120 
Q 3081 2363 2516 2363 
L 1581 2363 
L 1581 331 
z
M 1581 2694 
L 2375 2694 
Q 2888 2694 3123 2891 
Q 3359 3088 3359 3513 
Q 3359 3941 3123 4136 
Q 2888 4331 2375 4331 
L 1581 4331 
L 1581 2694 
z
M 353 0 
L 353 331 
L 947 331 
L 947 4331 
L 353 4331 
L 353 4666 
L 2656 4666 
Q 3363 4666 3720 4377 
Q 4078 4088 4078 3513 
Q 4078 3097 3829 2850 
Q 3581 2603 3103 2547 
Q 3697 2472 4005 2167 
Q 4313 1863 4313 1350 
Q 4313 656 3875 328 
Q 3438 0 2509 0 
L 353 0 
z
" transform="scale(0.015625)"/>
        <path id="DejaVuSerif-6b" d="M 1831 0 
L 219 0 
L 219 331 
L 738 331 
L 738 4531 
L 184 4531 
L 184 4863 
L 1313 4863 
L 1313 1697 
L 2713 2988 
L 2234 2988 
L 2234 3322 
L 3738 3322 
L 3738 2988 
L 3169 2988 
L 2181 2075 
L 3444 331 
L 3922 331 
L 3922 0 
L 2284 0 
L 2284 331 
L 2759 331 
L 1766 1697 
L 1313 1275 
L 1313 331 
L 1831 331 
L 1831 0 
z
" transform="scale(0.015625)"/>
        <path id="DejaVuSerif-55" d="M 897 4331 
L 300 4331 
L 300 4666 
L 2125 4666 
L 2125 4331 
L 1528 4331 
L 1528 1919 
Q 1528 1025 1820 672 
Q 2113 319 2828 319 
Q 3544 319 3836 672 
Q 4128 1025 4128 1919 
L 4128 4331 
L 3531 4331 
L 3531 4666 
L 5106 4666 
L 5106 4331 
L 4513 4331 
L 4513 1856 
Q 4513 791 4103 350 
Q 3694 -91 2713 -91 
Q 1731 -91 1314 353 
Q 897 797 897 1856 
L 897 4331 
z
" transform="scale(0.015625)"/>
       </defs>
       <use xlink:href="#DejaVuSerif-42"/>
       <use xlink:href="#DejaVuSerif-61" x="73.486328"/>
       <use xlink:href="#DejaVuSerif-63" x="133.105469"/>
       <use xlink:href="#DejaVuSerif-6b" x="189.111328"/>
       <use xlink:href="#DejaVuSerif-69" x="249.707031"/>
       <use xlink:href="#DejaVuSerif-6e" x="281.689453"/>
       <use xlink:href="#DejaVuSerif-67" x="346.09375"/>
       <use xlink:href="#DejaVuSerif-20" x="410.107422"/>
       <use xlink:href="#DejaVuSerif-55" x="441.894531"/>
       <use xlink:href="#DejaVuSerif-6e" x="526.171875"/>
       <use xlink:href="#DejaVuSerif-73" x="590.576172"/>
       <use xlink:href="#DejaVuSerif-61" x="641.894531"/>
       <use xlink:href="#DejaVuSerif-66" x="701.513672"/>
       <use xlink:href="#DejaVuSerif-65" x="738.525391"/>
       <use xlink:href="#DejaVuSerif-6c" x="797.705078"/>
       <use xlink:href="#DejaVuSerif-79" x="829.6875"/>
      </g>
     </g>
    </g>
    <g id="xtick_5">
     <g id="line2d_5">
      <g>
       <use xlink:href="#m1e0098fcc3" x="425.846362" y="340.907468" style="stroke: #000000; stroke-width: 0.8"/>
      </g>
     </g>
     <g id="text_5">
      <!-- Other Vehicular -->
      <g transform="translate(367.536569 410.119606) rotate(-45) scale(0.1 -0.1)">
       <defs>
        <path id="DejaVuSerif-4f" d="M 2625 244 
Q 3391 244 3781 770 
Q 4172 1297 4172 2328 
Q 4172 3363 3781 3889 
Q 3391 4416 2625 4416 
Q 1856 4416 1465 3889 
Q 1075 3363 1075 2328 
Q 1075 1297 1465 770 
Q 1856 244 2625 244 
z
M 2625 -91 
Q 2150 -91 1751 65 
Q 1353 222 1050 525 
Q 700 875 529 1319 
Q 359 1763 359 2328 
Q 359 2894 529 3339 
Q 700 3784 1050 4134 
Q 1356 4441 1750 4595 
Q 2144 4750 2625 4750 
Q 3641 4750 4266 4084 
Q 4891 3419 4891 2328 
Q 4891 1769 4719 1320 
Q 4547 872 4197 525 
Q 3891 219 3497 64 
Q 3103 -91 2625 -91 
z
" transform="scale(0.015625)"/>
        <path id="DejaVuSerif-56" d="M 1119 4331 
L 2497 750 
L 3872 4331 
L 3347 4331 
L 3347 4666 
L 4716 4666 
L 4716 4331 
L 4263 4331 
L 2597 0 
L 2059 0 
L 403 4331 
L -63 4331 
L -63 4666 
L 1638 4666 
L 1638 4331 
L 1119 4331 
z
" transform="scale(0.015625)"/>
       </defs>
       <use xlink:href="#DejaVuSerif-4f"/>
       <use xlink:href="#DejaVuSerif-74" x="81.982422"/>
       <use xlink:href="#DejaVuSerif-68" x="122.167969"/>
       <use xlink:href="#DejaVuSerif-65" x="186.572266"/>
       <use xlink:href="#DejaVuSerif-72" x="245.751953"/>
       <use xlink:href="#DejaVuSerif-20" x="293.554688"/>
       <use xlink:href="#DejaVuSerif-56" x="325.341797"/>
       <use xlink:href="#DejaVuSerif-65" x="388.433594"/>
       <use xlink:href="#DejaVuSerif-68" x="447.613281"/>
       <use xlink:href="#DejaVuSerif-69" x="512.017578"/>
       <use xlink:href="#DejaVuSerif-63" x="544"/>
       <use xlink:href="#DejaVuSerif-75" x="600.005859"/>
       <use xlink:href="#DejaVuSerif-6c" x="664.410156"/>
       <use xlink:href="#DejaVuSerif-61" x="696.392578"/>
       <use xlink:href="#DejaVuSerif-72" x="756.011719"/>
      </g>
     </g>
    </g>
    <g id="xtick_6">
     <g id="line2d_6">
      <g>
       <use xlink:href="#m1e0098fcc3" x="501.979232" y="340.907468" style="stroke: #000000; stroke-width: 0.8"/>
      </g>
     </g>
     <g id="text_6">
      <!-- Passing or Lane Usage Improper -->
      <g transform="translate(382.607454 470.980508) rotate(-45) scale(0.1 -0.1)">
       <defs>
        <path id="DejaVuSerif-50" d="M 1581 2375 
L 2406 2375 
Q 2872 2375 3115 2626 
Q 3359 2878 3359 3353 
Q 3359 3831 3115 4081 
Q 2872 4331 2406 4331 
L 1581 4331 
L 1581 2375 
z
M 353 0 
L 353 331 
L 947 331 
L 947 4331 
L 353 4331 
L 353 4666 
L 2559 4666 
Q 3259 4666 3668 4311 
Q 4078 3956 4078 3353 
Q 4078 2753 3668 2397 
Q 3259 2041 2559 2041 
L 1581 2041 
L 1581 331 
L 2303 331 
L 2303 0 
L 353 0 
z
" transform="scale(0.015625)"/>
        <path id="DejaVuSerif-4c" d="M 353 0 
L 353 331 
L 947 331 
L 947 4331 
L 353 4331 
L 353 4666 
L 2175 4666 
L 2175 4331 
L 1581 4331 
L 1581 384 
L 3713 384 
L 3713 1166 
L 4097 1166 
L 4097 0 
L 353 0 
z
" transform="scale(0.015625)"/>
        <path id="DejaVuSerif-6d" d="M 3316 2675 
Q 3481 3041 3739 3227 
Q 3997 3413 4341 3413 
Q 4863 3413 5119 3089 
Q 5375 2766 5375 2113 
L 5375 331 
L 5894 331 
L 5894 0 
L 4300 0 
L 4300 331 
L 4800 331 
L 4800 2047 
Q 4800 2556 4650 2772 
Q 4500 2988 4153 2988 
Q 3769 2988 3567 2697 
Q 3366 2406 3366 1850 
L 3366 331 
L 3866 331 
L 3866 0 
L 2291 0 
L 2291 331 
L 2791 331 
L 2791 2069 
Q 2791 2566 2641 2777 
Q 2491 2988 2144 2988 
Q 1759 2988 1557 2697 
Q 1356 2406 1356 1850 
L 1356 331 
L 1856 331 
L 1856 0 
L 263 0 
L 263 331 
L 781 331 
L 781 2994 
L 231 2994 
L 231 3322 
L 1356 3322 
L 1356 2731 
Q 1516 3063 1762 3238 
Q 2009 3413 2322 3413 
Q 2709 3413 2968 3220 
Q 3228 3028 3316 2675 
z
" transform="scale(0.015625)"/>
        <path id="DejaVuSerif-70" d="M 1313 1825 
L 1313 1497 
Q 1313 897 1542 583 
Q 1772 269 2209 269 
Q 2650 269 2876 622 
Q 3103 975 3103 1663 
Q 3103 2353 2876 2703 
Q 2650 3053 2209 3053 
Q 1772 3053 1542 2737 
Q 1313 2422 1313 1825 
z
M 738 2988 
L 184 2988 
L 184 3322 
L 1313 3322 
L 1313 2803 
Q 1481 3116 1742 3264 
Q 2003 3413 2388 3413 
Q 3000 3413 3387 2928 
Q 3775 2444 3775 1663 
Q 3775 881 3387 395 
Q 3000 -91 2388 -91 
Q 2003 -91 1742 57 
Q 1481 206 1313 519 
L 1313 -997 
L 1856 -997 
L 1856 -1331 
L 184 -1331 
L 184 -997 
L 738 -997 
L 738 2988 
z
" transform="scale(0.015625)"/>
       </defs>
       <use xlink:href="#DejaVuSerif-50"/>
       <use xlink:href="#DejaVuSerif-61" x="62.785156"/>
       <use xlink:href="#DejaVuSerif-73" x="122.404297"/>
       <use xlink:href="#DejaVuSerif-73" x="173.722656"/>
       <use xlink:href="#DejaVuSerif-69" x="225.041016"/>
       <use xlink:href="#DejaVuSerif-6e" x="257.023438"/>
       <use xlink:href="#DejaVuSerif-67" x="321.427734"/>
       <use xlink:href="#DejaVuSerif-20" x="385.441406"/>
       <use xlink:href="#DejaVuSerif-6f" x="417.228516"/>
       <use xlink:href="#DejaVuSerif-72" x="477.433594"/>
       <use xlink:href="#DejaVuSerif-20" x="525.236328"/>
       <use xlink:href="#DejaVuSerif-4c" x="557.023438"/>
       <use xlink:href="#DejaVuSerif-61" x="623.429688"/>
       <use xlink:href="#DejaVuSerif-6e" x="683.048828"/>
       <use xlink:href="#DejaVuSerif-65" x="747.453125"/>
       <use xlink:href="#DejaVuSerif-20" x="806.632812"/>
       <use xlink:href="#DejaVuSerif-55" x="838.419922"/>
       <use xlink:href="#DejaVuSerif-73" x="922.697266"/>
       <use xlink:href="#DejaVuSerif-61" x="974.015625"/>
       <use xlink:href="#DejaVuSerif-67" x="1033.634766"/>
       <use xlink:href="#DejaVuSerif-65" x="1097.648438"/>
       <use xlink:href="#DejaVuSerif-20" x="1156.828125"/>
       <use xlink:href="#DejaVuSerif-49" x="1188.615234"/>
       <use xlink:href="#DejaVuSerif-6d" x="1228.117188"/>
       <use xlink:href="#DejaVuSerif-70" x="1322.941406"/>
       <use xlink:href="#DejaVuSerif-72" x="1386.955078"/>
       <use xlink:href="#DejaVuSerif-6f" x="1434.757812"/>
       <use xlink:href="#DejaVuSerif-70" x="1494.962891"/>
       <use xlink:href="#DejaVuSerif-65" x="1558.976562"/>
       <use xlink:href="#DejaVuSerif-72" x="1618.15625"/>
      </g>
     </g>
    </g>
    <g id="xtick_7">
     <g id="line2d_7">
      <g>
       <use xlink:href="#m1e0098fcc3" x="578.112102" y="340.907468" style="stroke: #000000; stroke-width: 0.8"/>
      </g>
     </g>
     <g id="text_7">
      <!-- Passing Too Closely -->
      <g transform="translate(506.109849 423.711524) rotate(-45) scale(0.1 -0.1)">
       <use xlink:href="#DejaVuSerif-50"/>
       <use xlink:href="#DejaVuSerif-61" x="62.785156"/>
       <use xlink:href="#DejaVuSerif-73" x="122.404297"/>
       <use xlink:href="#DejaVuSerif-73" x="173.722656"/>
       <use xlink:href="#DejaVuSerif-69" x="225.041016"/>
       <use xlink:href="#DejaVuSerif-6e" x="257.023438"/>
       <use xlink:href="#DejaVuSerif-67" x="321.427734"/>
       <use xlink:href="#DejaVuSerif-20" x="385.441406"/>
       <use xlink:href="#DejaVuSerif-54" x="417.228516"/>
       <use xlink:href="#DejaVuSerif-6f" x="476.177734"/>
       <use xlink:href="#DejaVuSerif-6f" x="536.382812"/>
       <use xlink:href="#DejaVuSerif-20" x="596.587891"/>
       <use xlink:href="#DejaVuSerif-43" x="628.375"/>
       <use xlink:href="#DejaVuSerif-6c" x="704.888672"/>
       <use xlink:href="#DejaVuSerif-6f" x="736.871094"/>
       <use xlink:href="#DejaVuSerif-73" x="797.076172"/>
       <use xlink:href="#DejaVuSerif-65" x="848.394531"/>
       <use xlink:href="#DejaVuSerif-6c" x="907.574219"/>
       <use xlink:href="#DejaVuSerif-79" x="939.556641"/>
      </g>
     </g>
    </g>
    <g id="xtick_8">
     <g id="line2d_8">
      <g>
       <use xlink:href="#m1e0098fcc3" x="654.244972" y="340.907468" style="stroke: #000000; stroke-width: 0.8"/>
      </g>
     </g>
     <g id="text_8">
      <!-- Turning Improperly -->
      <g transform="translate(581.869278 424.084965) rotate(-45) scale(0.1 -0.1)">
       <use xlink:href="#DejaVuSerif-54"/>
       <use xlink:href="#DejaVuSerif-75" x="66.699219"/>
       <use xlink:href="#DejaVuSerif-72" x="131.103516"/>
       <use xlink:href="#DejaVuSerif-6e" x="178.90625"/>
       <use xlink:href="#DejaVuSerif-69" x="243.310547"/>
       <use xlink:href="#DejaVuSerif-6e" x="275.292969"/>
       <use xlink:href="#DejaVuSerif-67" x="339.697266"/>
       <use xlink:href="#DejaVuSerif-20" x="403.710938"/>
       <use xlink:href="#DejaVuSerif-49" x="435.498047"/>
       <use xlink:href="#DejaVuSerif-6d" x="475"/>
       <use xlink:href="#DejaVuSerif-70" x="569.824219"/>
       <use xlink:href="#DejaVuSerif-72" x="633.837891"/>
       <use xlink:href="#DejaVuSerif-6f" x="681.640625"/>
       <use xlink:href="#DejaVuSerif-70" x="741.845703"/>
       <use xlink:href="#DejaVuSerif-65" x="805.859375"/>
       <use xlink:href="#DejaVuSerif-72" x="865.039062"/>
       <use xlink:href="#DejaVuSerif-6c" x="912.841797"/>
       <use xlink:href="#DejaVuSerif-79" x="944.824219"/>
      </g>
     </g>
    </g>
    <g id="xtick_9">
     <g id="line2d_9">
      <g>
       <use xlink:href="#m1e0098fcc3" x="730.377842" y="340.907468" style="stroke: #000000; stroke-width: 0.8"/>
      </g>
     </g>
     <g id="text_9">
      <!-- Fatigued/Drowsy -->
      <g transform="translate(667.901644 414.18547) rotate(-45) scale(0.1 -0.1)">
       <use xlink:href="#DejaVuSerif-46"/>
       <use xlink:href="#DejaVuSerif-61" x="62.634766"/>
       <use xlink:href="#DejaVuSerif-74" x="122.253906"/>
       <use xlink:href="#DejaVuSerif-69" x="162.439453"/>
       <use xlink:href="#DejaVuSerif-67" x="194.421875"/>
       <use xlink:href="#DejaVuSerif-75" x="258.435547"/>
       <use xlink:href="#DejaVuSerif-65" x="322.839844"/>
       <use xlink:href="#DejaVuSerif-64" x="382.019531"/>
       <use xlink:href="#DejaVuSerif-2f" x="446.033203"/>
       <use xlink:href="#DejaVuSerif-44" x="479.724609"/>
       <use xlink:href="#DejaVuSerif-72" x="559.900391"/>
       <use xlink:href="#DejaVuSerif-6f" x="607.703125"/>
       <use xlink:href="#DejaVuSerif-77" x="667.908203"/>
       <use xlink:href="#DejaVuSerif-73" x="753.503906"/>
       <use xlink:href="#DejaVuSerif-79" x="804.822266"/>
      </g>
     </g>
    </g>
    <g id="xtick_10">
     <g id="line2d_10">
      <g>
       <use xlink:href="#m1e0098fcc3" x="806.510712" y="340.907468" style="stroke: #000000; stroke-width: 0.8"/>
      </g>
     </g>
     <g id="text_10">
      <!-- Unsafe Lane Changing -->
      <g transform="translate(723.029023 435.190961) rotate(-45) scale(0.1 -0.1)">
       <use xlink:href="#DejaVuSerif-55"/>
       <use xlink:href="#DejaVuSerif-6e" x="84.277344"/>
       <use xlink:href="#DejaVuSerif-73" x="148.681641"/>
       <use xlink:href="#DejaVuSerif-61" x="200"/>
       <use xlink:href="#DejaVuSerif-66" x="259.619141"/>
       <use xlink:href="#DejaVuSerif-65" x="296.630859"/>
       <use xlink:href="#DejaVuSerif-20" x="355.810547"/>
       <use xlink:href="#DejaVuSerif-4c" x="387.597656"/>
       <use xlink:href="#DejaVuSerif-61" x="454.003906"/>
       <use xlink:href="#DejaVuSerif-6e" x="513.623047"/>
       <use xlink:href="#DejaVuSerif-65" x="578.027344"/>
       <use xlink:href="#DejaVuSerif-20" x="637.207031"/>
       <use xlink:href="#DejaVuSerif-43" x="668.994141"/>
       <use xlink:href="#DejaVuSerif-68" x="745.507812"/>
       <use xlink:href="#DejaVuSerif-61" x="809.912109"/>
       <use xlink:href="#DejaVuSerif-6e" x="869.53125"/>
       <use xlink:href="#DejaVuSerif-67" x="933.935547"/>
       <use xlink:href="#DejaVuSerif-69" x="997.949219"/>
       <use xlink:href="#DejaVuSerif-6e" x="1029.931641"/>
       <use xlink:href="#DejaVuSerif-67" x="1094.335938"/>
      </g>
     </g>
    </g>
    <g id="text_11">
     <!-- Contributing Factor -->
     <g transform="translate(403.412172 485.669736) scale(0.12 -0.12)">
      <defs>
       <path id="DejaVuSerif-62" d="M 738 331 
L 738 4531 
L 184 4531 
L 184 4863 
L 1313 4863 
L 1313 2803 
Q 1481 3116 1742 3264 
Q 2003 3413 2388 3413 
Q 3000 3413 3387 2928 
Q 3775 2444 3775 1663 
Q 3775 881 3387 395 
Q 3000 -91 2388 -91 
Q 2003 -91 1742 57 
Q 1481 206 1313 519 
L 1313 0 
L 184 0 
L 184 331 
L 738 331 
z
M 1313 1497 
Q 1313 897 1542 583 
Q 1772 269 2209 269 
Q 2650 269 2876 622 
Q 3103 975 3103 1663 
Q 3103 2353 2876 2703 
Q 2650 3053 2209 3053 
Q 1772 3053 1542 2737 
Q 1313 2422 1313 1825 
L 1313 1497 
z
" transform="scale(0.015625)"/>
      </defs>
      <use xlink:href="#DejaVuSerif-43"/>
      <use xlink:href="#DejaVuSerif-6f" x="76.513672"/>
      <use xlink:href="#DejaVuSerif-6e" x="136.71875"/>
      <use xlink:href="#DejaVuSerif-74" x="201.123047"/>
      <use xlink:href="#DejaVuSerif-72" x="241.308594"/>
      <use xlink:href="#DejaVuSerif-69" x="289.111328"/>
      <use xlink:href="#DejaVuSerif-62" x="321.09375"/>
      <use xlink:href="#DejaVuSerif-75" x="385.107422"/>
      <use xlink:href="#DejaVuSerif-74" x="449.511719"/>
      <use xlink:href="#DejaVuSerif-69" x="489.697266"/>
      <use xlink:href="#DejaVuSerif-6e" x="521.679688"/>
      <use xlink:href="#DejaVuSerif-67" x="586.083984"/>
      <use xlink:href="#DejaVuSerif-20" x="650.097656"/>
      <use xlink:href="#DejaVuSerif-46" x="681.884766"/>
      <use xlink:href="#DejaVuSerif-61" x="744.519531"/>
      <use xlink:href="#DejaVuSerif-63" x="804.138672"/>
      <use xlink:href="#DejaVuSerif-74" x="860.144531"/>
      <use xlink:href="#DejaVuSerif-6f" x="900.330078"/>
      <use xlink:href="#DejaVuSerif-72" x="960.535156"/>
     </g>
    </g>
   </g>
   <g id="matplotlib.axis_2">
    <g id="ytick_1">
     <g id="line2d_11">
      <path d="M 83.248446 340.907468 
L 844.577147 340.907468 
" clip-path="url(#p8c09a88a4e)" style="fill: none; stroke-dasharray: 2.96,1.28; stroke-dashoffset: 0; stroke: #b0b0b0; stroke-opacity: 0.7; stroke-width: 0.8"/>
     </g>
     <g id="line2d_12">
      <defs>
       <path id="mb2fb8e0583" d="M 0 0 
L -3.5 0 
" style="stroke: #000000; stroke-width: 0.8"/>
      </defs>
      <g>
       <use xlink:href="#mb2fb8e0583" x="83.248446" y="340.907468" style="stroke: #000000; stroke-width: 0.8"/>
      </g>
     </g>
     <g id="text_12">
      <!-- 0 -->
      <g transform="translate(69.885946 344.706686) scale(0.1 -0.1)">
       <defs>
        <path id="DejaVuSerif-30" d="M 2034 219 
Q 2513 219 2750 744 
Q 2988 1269 2988 2328 
Q 2988 3391 2750 3916 
Q 2513 4441 2034 4441 
Q 1556 4441 1318 3916 
Q 1081 3391 1081 2328 
Q 1081 1269 1318 744 
Q 1556 219 2034 219 
z
M 2034 -91 
Q 1275 -91 848 546 
Q 422 1184 422 2328 
Q 422 3475 848 4112 
Q 1275 4750 2034 4750 
Q 2797 4750 3222 4112 
Q 3647 3475 3647 2328 
Q 3647 1184 3222 546 
Q 2797 -91 2034 -91 
z
" transform="scale(0.015625)"/>
       </defs>
       <use xlink:href="#DejaVuSerif-30"/>
      </g>
     </g>
    </g>
    <g id="ytick_2">
     <g id="line2d_13">
      <path d="M 83.248446 275.385057 
L 844.577147 275.385057 
" clip-path="url(#p8c09a88a4e)" style="fill: none; stroke-dasharray: 2.96,1.28; stroke-dashoffset: 0; stroke: #b0b0b0; stroke-opacity: 0.7; stroke-width: 0.8"/>
     </g>
     <g id="line2d_14">
      <g>
       <use xlink:href="#mb2fb8e0583" x="83.248446" y="275.385057" style="stroke: #000000; stroke-width: 0.8"/>
      </g>
     </g>
     <g id="text_13">
      <!-- 100000 -->
      <g transform="translate(38.073446 279.184276) scale(0.1 -0.1)">
       <defs>
        <path id="DejaVuSerif-31" d="M 909 0 
L 909 331 
L 1722 331 
L 1722 4213 
L 781 3603 
L 781 4013 
L 1919 4750 
L 2350 4750 
L 2350 331 
L 3163 331 
L 3163 0 
L 909 0 
z
" transform="scale(0.015625)"/>
       </defs>
       <use xlink:href="#DejaVuSerif-31"/>
       <use xlink:href="#DejaVuSerif-30" x="63.623047"/>
       <use xlink:href="#DejaVuSerif-30" x="127.246094"/>
       <use xlink:href="#DejaVuSerif-30" x="190.869141"/>
       <use xlink:href="#DejaVuSerif-30" x="254.492188"/>
       <use xlink:href="#DejaVuSerif-30" x="318.115234"/>
      </g>
     </g>
    </g>
    <g id="ytick_3">
     <g id="line2d_15">
      <path d="M 83.248446 209.862646 
L 844.577147 209.862646 
" clip-path="url(#p8c09a88a4e)" style="fill: none; stroke-dasharray: 2.96,1.28; stroke-dashoffset: 0; stroke: #b0b0b0; stroke-opacity: 0.7; stroke-width: 0.8"/>
     </g>
     <g id="line2d_16">
      <g>
       <use xlink:href="#mb2fb8e0583" x="83.248446" y="209.862646" style="stroke: #000000; stroke-width: 0.8"/>
      </g>
     </g>
     <g id="text_14">
      <!-- 200000 -->
      <g transform="translate(38.073446 213.661865) scale(0.1 -0.1)">
       <defs>
        <path id="DejaVuSerif-32" d="M 819 3553 
L 469 3553 
L 469 4384 
Q 803 4563 1142 4656 
Q 1481 4750 1806 4750 
Q 2534 4750 2956 4397 
Q 3378 4044 3378 3438 
Q 3378 2753 2422 1800 
Q 2347 1728 2309 1691 
L 1131 513 
L 3078 513 
L 3078 1088 
L 3444 1088 
L 3444 0 
L 434 0 
L 434 341 
L 1850 1753 
Q 2319 2222 2519 2614 
Q 2719 3006 2719 3438 
Q 2719 3909 2473 4175 
Q 2228 4441 1797 4441 
Q 1350 4441 1106 4219 
Q 863 3997 819 3553 
z
" transform="scale(0.015625)"/>
       </defs>
       <use xlink:href="#DejaVuSerif-32"/>
       <use xlink:href="#DejaVuSerif-30" x="63.623047"/>
       <use xlink:href="#DejaVuSerif-30" x="127.246094"/>
       <use xlink:href="#DejaVuSerif-30" x="190.869141"/>
       <use xlink:href="#DejaVuSerif-30" x="254.492188"/>
       <use xlink:href="#DejaVuSerif-30" x="318.115234"/>
      </g>
     </g>
    </g>
    <g id="ytick_4">
     <g id="line2d_17">
      <path d="M 83.248446 144.340235 
L 844.577147 144.340235 
" clip-path="url(#p8c09a88a4e)" style="fill: none; stroke-dasharray: 2.96,1.28; stroke-dashoffset: 0; stroke: #b0b0b0; stroke-opacity: 0.7; stroke-width: 0.8"/>
     </g>
     <g id="line2d_18">
      <g>
       <use xlink:href="#mb2fb8e0583" x="83.248446" y="144.340235" style="stroke: #000000; stroke-width: 0.8"/>
      </g>
     </g>
     <g id="text_15">
      <!-- 300000 -->
      <g transform="translate(38.073446 148.139454) scale(0.1 -0.1)">
       <defs>
        <path id="DejaVuSerif-33" d="M 622 4469 
Q 988 4606 1323 4678 
Q 1659 4750 1953 4750 
Q 2638 4750 3022 4454 
Q 3406 4159 3406 3634 
Q 3406 3213 3140 2930 
Q 2875 2647 2388 2547 
Q 2963 2466 3280 2130 
Q 3597 1794 3597 1259 
Q 3597 606 3158 257 
Q 2719 -91 1894 -91 
Q 1528 -91 1179 -12 
Q 831 66 488 225 
L 488 1131 
L 838 1131 
Q 869 681 1141 450 
Q 1413 219 1906 219 
Q 2384 219 2661 495 
Q 2938 772 2938 1253 
Q 2938 1803 2653 2086 
Q 2369 2369 1819 2369 
L 1522 2369 
L 1522 2688 
L 1678 2688 
Q 2225 2688 2498 2914 
Q 2772 3141 2772 3597 
Q 2772 4006 2547 4223 
Q 2322 4441 1900 4441 
Q 1478 4441 1245 4241 
Q 1013 4041 972 3647 
L 622 3647 
L 622 4469 
z
" transform="scale(0.015625)"/>
       </defs>
       <use xlink:href="#DejaVuSerif-33"/>
       <use xlink:href="#DejaVuSerif-30" x="63.623047"/>
       <use xlink:href="#DejaVuSerif-30" x="127.246094"/>
       <use xlink:href="#DejaVuSerif-30" x="190.869141"/>
       <use xlink:href="#DejaVuSerif-30" x="254.492188"/>
       <use xlink:href="#DejaVuSerif-30" x="318.115234"/>
      </g>
     </g>
    </g>
    <g id="ytick_5">
     <g id="line2d_19">
      <path d="M 83.248446 78.817825 
L 844.577147 78.817825 
" clip-path="url(#p8c09a88a4e)" style="fill: none; stroke-dasharray: 2.96,1.28; stroke-dashoffset: 0; stroke: #b0b0b0; stroke-opacity: 0.7; stroke-width: 0.8"/>
     </g>
     <g id="line2d_20">
      <g>
       <use xlink:href="#mb2fb8e0583" x="83.248446" y="78.817825" style="stroke: #000000; stroke-width: 0.8"/>
      </g>
     </g>
     <g id="text_16">
      <!-- 400000 -->
      <g transform="translate(38.073446 82.617043) scale(0.1 -0.1)">
       <defs>
        <path id="DejaVuSerif-34" d="M 2234 1581 
L 2234 4063 
L 641 1581 
L 2234 1581 
z
M 3609 0 
L 1484 0 
L 1484 331 
L 2234 331 
L 2234 1247 
L 197 1247 
L 197 1588 
L 2241 4750 
L 2859 4750 
L 2859 1581 
L 3750 1581 
L 3750 1247 
L 2859 1247 
L 2859 331 
L 3609 331 
L 3609 0 
z
" transform="scale(0.015625)"/>
       </defs>
       <use xlink:href="#DejaVuSerif-34"/>
       <use xlink:href="#DejaVuSerif-30" x="63.623047"/>
       <use xlink:href="#DejaVuSerif-30" x="127.246094"/>
       <use xlink:href="#DejaVuSerif-30" x="190.869141"/>
       <use xlink:href="#DejaVuSerif-30" x="254.492188"/>
       <use xlink:href="#DejaVuSerif-30" x="318.115234"/>
      </g>
     </g>
    </g>
    <g id="text_17">
     <!-- Number of Crashes -->
     <g transform="translate(31.577821 242.452796) rotate(-90) scale(0.12 -0.12)">
      <defs>
       <path id="DejaVuSerif-4e" d="M 313 0 
L 313 331 
L 941 331 
L 941 4331 
L 313 4331 
L 313 4666 
L 1509 4666 
L 4306 984 
L 4306 4331 
L 3681 4331 
L 3681 4666 
L 5319 4666 
L 5319 4331 
L 4691 4331 
L 4691 -91 
L 4313 -91 
L 1325 3841 
L 1325 331 
L 1953 331 
L 1953 0 
L 313 0 
z
" transform="scale(0.015625)"/>
      </defs>
      <use xlink:href="#DejaVuSerif-4e"/>
      <use xlink:href="#DejaVuSerif-75" x="87.5"/>
      <use xlink:href="#DejaVuSerif-6d" x="151.904297"/>
      <use xlink:href="#DejaVuSerif-62" x="246.728516"/>
      <use xlink:href="#DejaVuSerif-65" x="310.742188"/>
      <use xlink:href="#DejaVuSerif-72" x="369.921875"/>
      <use xlink:href="#DejaVuSerif-20" x="417.724609"/>
      <use xlink:href="#DejaVuSerif-6f" x="449.511719"/>
      <use xlink:href="#DejaVuSerif-66" x="509.716797"/>
      <use xlink:href="#DejaVuSerif-20" x="546.728516"/>
      <use xlink:href="#DejaVuSerif-43" x="578.515625"/>
      <use xlink:href="#DejaVuSerif-72" x="655.029297"/>
      <use xlink:href="#DejaVuSerif-61" x="702.832031"/>
      <use xlink:href="#DejaVuSerif-73" x="762.451172"/>
      <use xlink:href="#DejaVuSerif-68" x="813.769531"/>
      <use xlink:href="#DejaVuSerif-65" x="878.173828"/>
      <use xlink:href="#DejaVuSerif-73" x="937.353516"/>
     </g>
    </g>
   </g>
   <g id="patch_13">
    <path d="M 83.248446 340.907468 
L 83.248446 25.3575 
" style="fill: none; stroke: #000000; stroke-width: 0.8; stroke-linejoin: miter; stroke-linecap: square"/>
   </g>
   <g id="patch_14">
    <path d="M 844.577147 340.907468 
L 844.577147 25.3575 
" style="fill: none; stroke: #000000; stroke-width: 0.8; stroke-linejoin: miter; stroke-linecap: square"/>
   </g>
   <g id="patch_15">
    <path d="M 83.248446 340.907468 
L 844.577147 340.907468 
" style="fill: none; stroke: #000000; stroke-width: 0.8; stroke-linejoin: miter; stroke-linecap: square"/>
   </g>
   <g id="patch_16">
    <path d="M 83.248446 25.3575 
L 844.577147 25.3575 
" style="fill: none; stroke: #000000; stroke-width: 0.8; stroke-linejoin: miter; stroke-linecap: square"/>
   </g>
   <g id="text_18">
    <!-- Top 10 Most Common Contributing Factors 2014 - present -->
    <g transform="translate(226.151547 19.3575) scale(0.16 -0.16)">
     <defs>
      <path id="DejaVuSerif-4d" d="M 353 0 
L 353 331 
L 947 331 
L 947 4331 
L 319 4331 
L 319 4666 
L 1678 4666 
L 3316 1344 
L 4953 4666 
L 6228 4666 
L 6228 4331 
L 5606 4331 
L 5606 331 
L 6203 331 
L 6203 0 
L 4378 0 
L 4378 331 
L 4972 331 
L 4972 3938 
L 3372 684 
L 2931 684 
L 1331 3938 
L 1331 331 
L 1925 331 
L 1925 0 
L 353 0 
z
" transform="scale(0.015625)"/>
     </defs>
     <use xlink:href="#DejaVuSerif-54"/>
     <use xlink:href="#DejaVuSerif-6f" x="58.949219"/>
     <use xlink:href="#DejaVuSerif-70" x="119.154297"/>
     <use xlink:href="#DejaVuSerif-20" x="183.167969"/>
     <use xlink:href="#DejaVuSerif-31" x="214.955078"/>
     <use xlink:href="#DejaVuSerif-30" x="278.578125"/>
     <use xlink:href="#DejaVuSerif-20" x="342.201172"/>
     <use xlink:href="#DejaVuSerif-4d" x="373.988281"/>
     <use xlink:href="#DejaVuSerif-6f" x="476.380859"/>
     <use xlink:href="#DejaVuSerif-73" x="536.585938"/>
     <use xlink:href="#DejaVuSerif-74" x="587.904297"/>
     <use xlink:href="#DejaVuSerif-20" x="628.089844"/>
     <use xlink:href="#DejaVuSerif-43" x="659.876953"/>
     <use xlink:href="#DejaVuSerif-6f" x="736.390625"/>
     <use xlink:href="#DejaVuSerif-6d" x="796.595703"/>
     <use xlink:href="#DejaVuSerif-6d" x="891.419922"/>
     <use xlink:href="#DejaVuSerif-6f" x="986.244141"/>
     <use xlink:href="#DejaVuSerif-6e" x="1046.449219"/>
     <use xlink:href="#DejaVuSerif-20" x="1110.853516"/>
     <use xlink:href="#DejaVuSerif-43" x="1142.640625"/>
     <use xlink:href="#DejaVuSerif-6f" x="1219.154297"/>
     <use xlink:href="#DejaVuSerif-6e" x="1279.359375"/>
     <use xlink:href="#DejaVuSerif-74" x="1343.763672"/>
     <use xlink:href="#DejaVuSerif-72" x="1383.949219"/>
     <use xlink:href="#DejaVuSerif-69" x="1431.751953"/>
     <use xlink:href="#DejaVuSerif-62" x="1463.734375"/>
     <use xlink:href="#DejaVuSerif-75" x="1527.748047"/>
     <use xlink:href="#DejaVuSerif-74" x="1592.152344"/>
     <use xlink:href="#DejaVuSerif-69" x="1632.337891"/>
     <use xlink:href="#DejaVuSerif-6e" x="1664.320312"/>
     <use xlink:href="#DejaVuSerif-67" x="1728.724609"/>
     <use xlink:href="#DejaVuSerif-20" x="1792.738281"/>
     <use xlink:href="#DejaVuSerif-46" x="1824.525391"/>
     <use xlink:href="#DejaVuSerif-61" x="1887.160156"/>
     <use xlink:href="#DejaVuSerif-63" x="1946.779297"/>
     <use xlink:href="#DejaVuSerif-74" x="2002.785156"/>
     <use xlink:href="#DejaVuSerif-6f" x="2042.970703"/>
     <use xlink:href="#DejaVuSerif-72" x="2103.175781"/>
     <use xlink:href="#DejaVuSerif-73" x="2150.978516"/>
     <use xlink:href="#DejaVuSerif-20" x="2202.296875"/>
     <use xlink:href="#DejaVuSerif-32" x="2234.083984"/>
     <use xlink:href="#DejaVuSerif-30" x="2297.707031"/>
     <use xlink:href="#DejaVuSerif-31" x="2361.330078"/>
     <use xlink:href="#DejaVuSerif-34" x="2424.953125"/>
     <use xlink:href="#DejaVuSerif-20" x="2488.576172"/>
     <use xlink:href="#DejaVuSerif-2d" x="2520.363281"/>
     <use xlink:href="#DejaVuSerif-20" x="2554.152344"/>
     <use xlink:href="#DejaVuSerif-70" x="2585.939453"/>
     <use xlink:href="#DejaVuSerif-72" x="2649.953125"/>
     <use xlink:href="#DejaVuSerif-65" x="2697.755859"/>
     <use xlink:href="#DejaVuSerif-73" x="2756.935547"/>
     <use xlink:href="#DejaVuSerif-65" x="2808.253906"/>
     <use xlink:href="#DejaVuSerif-6e" x="2867.433594"/>
     <use xlink:href="#DejaVuSerif-74" x="2931.837891"/>
    </g>
   </g>
  </g>
 </g>
 <defs>
  <clipPath id="p8c09a88a4e">
   <rect x="83.248446" y="25.3575" width="761.328701" height="315.549968"/>
  </clipPath>
 </defs>
</svg>
