<?xml version="1.0" encoding="utf-8" standalone="no"?>
<!DOCTYPE svg PUBLIC "-//W3C//DTD SVG 1.1//EN"
  "http://www.w3.org/Graphics/SVG/1.1/DTD/svg11.dtd">
<svg xmlns:xlink="http://www.w3.org/1999/xlink" width="858.010781pt" height="408.433125pt" viewBox="0 0 858.010781 408.433125" xmlns="http://www.w3.org/2000/svg" version="1.1">
 <metadata>
  <rdf:RDF xmlns:dc="http://purl.org/dc/elements/1.1/" xmlns:cc="http://creativecommons.org/ns#" xmlns:rdf="http://www.w3.org/1999/02/22-rdf-syntax-ns#">
   <cc:Work>
    <dc:type rdf:resource="http://purl.org/dc/dcmitype/StillImage"/>
    <dc:date>2026-04-06T16:08:37.200076</dc:date>
    <dc:format>image/svg+xml</dc:format>
    <dc:creator>
     <cc:Agent>
      <dc:title>Matplotlib v3.6.3, https://matplotlib.org/</dc:title>
     </cc:Agent>
    </dc:creator>
   </cc:Work>
  </rdf:RDF>
 </metadata>
 <defs>
  <style type="text/css">*{stroke-linejoin: round; stroke-linecap: butt}</style>
 </defs>
 <g id="figure_1">
  <g id="patch_1">
   <path d="M 0 408.433125 
L 858.010781 408.433125 
L 858.010781 0 
L 0 0 
L 0 408.433125 
z
" style="fill: none"/>
  </g>
  <g id="axes_1">
   <g id="patch_2">
    <path d="M 57.04125 366.473125 
L 838.24125 366.473125 
L 838.24125 33.833125 
L 57.04125 33.833125 
L 57.04125 366.473125 
z
" style="fill: none"/>
   </g>
   <g id="PolyCollection_1"/>
   <g id="matplotlib.axis_1">
    <g id="xtick_1">
     <g id="line2d_1">
      <defs>
       <path id="md7fff3a260" d="M 0 0 
L 0 3.5 
" style="stroke: #2a3f5f; stroke-width: 0.8"/>
      </defs>
      <g>
       <use xlink:href="#md7fff3a260" x="57.04125" y="366.473125" style="fill: #2a3f5f; stroke: #2a3f5f; stroke-width: 0.8"/>
      </g>
     </g>
     <g id="text_1">
      <!-- 2003 -->
      <g style="fill: #2a3f5f" transform="translate(43.74125 381.773125) scale(0.1 -0.1)">
       <defs>
        <path id="LibreBaskerville-Regular-32" d="M 1248 659 
L 1254 627 
L 2528 627 
Q 2733 627 2870 684 
Q 3008 742 3110 902 
Q 3213 1062 3302 1363 
L 3539 1363 
L 3296 0 
L 320 0 
L 320 211 
Q 1050 864 1523 1357 
Q 1997 1850 2259 2234 
Q 2522 2618 2627 2954 
Q 2733 3290 2733 3622 
Q 2733 4115 2496 4406 
Q 2259 4698 1862 4698 
Q 1485 4698 1241 4448 
Q 998 4198 998 3802 
Q 998 3456 1190 3251 
Q 1382 3046 1702 3046 
Q 1677 2893 1539 2800 
Q 1402 2707 1203 2707 
Q 966 2707 780 2832 
Q 595 2957 486 3174 
Q 378 3392 378 3667 
Q 378 4051 586 4352 
Q 794 4653 1152 4825 
Q 1510 4998 1965 4998 
Q 2419 4998 2764 4819 
Q 3110 4640 3305 4329 
Q 3501 4019 3501 3610 
Q 3501 3085 3197 2582 
Q 2893 2080 2381 1600 
Q 1869 1120 1248 659 
z
" transform="scale(0.015625)"/>
        <path id="LibreBaskerville-Regular-30" d="M 2285 4992 
Q 2675 4992 3017 4797 
Q 3360 4602 3622 4253 
Q 3885 3904 4032 3437 
Q 4179 2970 4179 2426 
Q 4179 1907 4032 1452 
Q 3885 998 3622 659 
Q 3360 320 3017 128 
Q 2675 -64 2285 -64 
Q 1894 -64 1552 128 
Q 1210 320 947 659 
Q 685 998 537 1452 
Q 390 1907 390 2426 
Q 390 2970 537 3437 
Q 685 3904 947 4253 
Q 1210 4602 1552 4797 
Q 1894 4992 2285 4992 
z
M 2285 243 
Q 2618 243 2854 438 
Q 3091 634 3219 1104 
Q 3347 1574 3347 2406 
Q 3347 3277 3219 3773 
Q 3091 4269 2854 4477 
Q 2618 4685 2285 4685 
Q 1952 4685 1715 4477 
Q 1478 4269 1350 3773 
Q 1222 3277 1222 2406 
Q 1222 1574 1350 1104 
Q 1478 634 1715 438 
Q 1952 243 2285 243 
z
" transform="scale(0.015625)"/>
        <path id="LibreBaskerville-Regular-33" d="M 1856 -64 
Q 1414 -64 1068 83 
Q 723 230 524 486 
Q 326 742 326 1069 
Q 326 1299 422 1484 
Q 518 1670 688 1776 
Q 858 1882 1062 1882 
Q 1242 1882 1382 1802 
Q 1523 1722 1555 1600 
Q 1318 1600 1161 1424 
Q 1005 1248 1005 973 
Q 1005 646 1238 441 
Q 1472 237 1843 237 
Q 2278 237 2512 531 
Q 2746 826 2746 1370 
Q 2746 1901 2531 2192 
Q 2317 2483 1926 2483 
Q 1830 2438 1712 2403 
Q 1594 2368 1498 2368 
Q 1370 2368 1286 2429 
Q 1203 2490 1203 2586 
Q 1203 2675 1280 2720 
Q 1357 2765 1485 2765 
Q 1568 2765 1673 2745 
Q 1779 2726 1875 2694 
Q 2214 2694 2425 3004 
Q 2637 3315 2637 3821 
Q 2637 4275 2451 4496 
Q 2266 4717 1882 4717 
Q 1549 4717 1350 4563 
Q 1152 4410 1152 4141 
Q 1152 3923 1280 3788 
Q 1408 3654 1613 3654 
Q 1587 3552 1459 3481 
Q 1331 3411 1165 3411 
Q 979 3411 832 3500 
Q 685 3590 598 3744 
Q 512 3898 512 4090 
Q 512 4365 685 4566 
Q 858 4768 1165 4880 
Q 1472 4992 1882 4992 
Q 2342 4992 2684 4851 
Q 3027 4710 3216 4454 
Q 3405 4198 3405 3853 
Q 3405 3565 3277 3321 
Q 3149 3078 2931 2908 
Q 2714 2739 2445 2669 
L 2445 2630 
Q 2925 2509 3238 2160 
Q 3552 1811 3552 1325 
Q 3552 928 3334 614 
Q 3117 301 2733 118 
Q 2349 -64 1856 -64 
z
" transform="scale(0.015625)"/>
       </defs>
       <use xlink:href="#LibreBaskerville-Regular-32"/>
       <use xlink:href="#LibreBaskerville-Regular-30" x="61.599991"/>
       <use xlink:href="#LibreBaskerville-Regular-30" x="132.999985"/>
       <use xlink:href="#LibreBaskerville-Regular-33" x="204.399979"/>
      </g>
     </g>
    </g>
    <g id="xtick_2">
     <g id="line2d_2">
      <g>
       <use xlink:href="#md7fff3a260" x="128.059432" y="366.473125" style="fill: #2a3f5f; stroke: #2a3f5f; stroke-width: 0.8"/>
      </g>
     </g>
     <g id="text_2">
      <!-- 2005 -->
      <g style="fill: #2a3f5f" transform="translate(114.999276 381.773125) scale(0.1 -0.1)">
       <defs>
        <path id="LibreBaskerville-Regular-35" d="M 1568 4230 
L 1267 3085 
L 1280 3066 
Q 1376 3136 1561 3184 
Q 1747 3232 1933 3232 
Q 2310 3232 2611 3037 
Q 2912 2842 3085 2509 
Q 3258 2176 3258 1754 
Q 3258 1370 3114 1040 
Q 2970 710 2714 464 
Q 2458 218 2118 77 
Q 1779 -64 1382 -64 
Q 1024 -64 742 51 
Q 461 166 301 364 
Q 141 563 141 819 
Q 141 992 221 1088 
Q 301 1184 448 1184 
Q 608 1184 678 1085 
Q 749 986 784 845 
Q 819 704 870 560 
Q 922 416 1043 317 
Q 1165 218 1402 218 
Q 1901 218 2182 678 
Q 2464 1139 2464 1901 
Q 2464 2445 2313 2701 
Q 2163 2957 1811 2957 
Q 1549 2957 1376 2813 
Q 1203 2669 1094 2349 
Q 1056 2234 1024 2202 
Q 992 2170 941 2170 
Q 800 2170 800 2298 
Q 800 2310 800 2323 
Q 800 2336 806 2349 
L 1491 4992 
Q 1632 4934 1811 4905 
Q 1990 4877 2240 4877 
Q 2835 4877 3091 4998 
L 3130 4992 
Q 3053 4627 2790 4428 
Q 2528 4230 2131 4230 
L 1568 4230 
z
" transform="scale(0.015625)"/>
       </defs>
       <use xlink:href="#LibreBaskerville-Regular-32"/>
       <use xlink:href="#LibreBaskerville-Regular-30" x="61.599991"/>
       <use xlink:href="#LibreBaskerville-Regular-30" x="132.999985"/>
       <use xlink:href="#LibreBaskerville-Regular-35" x="204.399979"/>
      </g>
     </g>
    </g>
    <g id="xtick_3">
     <g id="line2d_3">
      <g>
       <use xlink:href="#md7fff3a260" x="199.077614" y="366.473125" style="fill: #2a3f5f; stroke: #2a3f5f; stroke-width: 0.8"/>
      </g>
     </g>
     <g id="text_3">
      <!-- 2007 -->
      <g style="fill: #2a3f5f" transform="translate(186.347145 381.773125) scale(0.1 -0.1)">
       <defs>
        <path id="LibreBaskerville-Regular-37" d="M 954 -64 
Q 838 -64 758 22 
Q 678 109 678 198 
Q 678 262 694 342 
Q 710 422 768 563 
Q 826 704 947 953 
Q 1069 1203 1277 1609 
Q 1485 2016 1798 2624 
L 2669 4294 
L 1478 4294 
Q 1146 4294 976 4262 
Q 806 4230 720 4118 
Q 634 4006 544 3770 
L 448 3520 
L 205 3520 
L 653 5312 
L 909 5312 
Q 902 5286 892 5222 
Q 883 5158 883 5114 
Q 883 5005 979 4966 
Q 1075 4928 1370 4928 
L 3245 4928 
L 3245 4800 
Q 3034 4320 2870 3952 
Q 2707 3584 2576 3280 
Q 2445 2976 2336 2707 
Q 2227 2438 2118 2166 
Q 2010 1894 1888 1580 
Q 1766 1267 1619 870 
Q 1478 493 1366 288 
Q 1254 83 1158 9 
Q 1062 -64 954 -64 
z
" transform="scale(0.015625)"/>
       </defs>
       <use xlink:href="#LibreBaskerville-Regular-32"/>
       <use xlink:href="#LibreBaskerville-Regular-30" x="61.599991"/>
       <use xlink:href="#LibreBaskerville-Regular-30" x="132.999985"/>
       <use xlink:href="#LibreBaskerville-Regular-37" x="204.399979"/>
      </g>
     </g>
    </g>
    <g id="xtick_4">
     <g id="line2d_4">
      <g>
       <use xlink:href="#md7fff3a260" x="270.095795" y="366.473125" style="fill: #2a3f5f; stroke: #2a3f5f; stroke-width: 0.8"/>
      </g>
     </g>
     <g id="text_4">
      <!-- 2009 -->
      <g style="fill: #2a3f5f" transform="translate(256.660639 381.773125) scale(0.1 -0.1)">
       <defs>
        <path id="LibreBaskerville-Regular-39" d="M 365 3270 
Q 365 3629 496 3942 
Q 627 4256 860 4493 
Q 1094 4730 1401 4861 
Q 1709 4992 2061 4992 
Q 2554 4992 2928 4707 
Q 3302 4422 3513 3923 
Q 3725 3424 3725 2771 
Q 3725 2189 3565 1673 
Q 3405 1158 3126 768 
Q 2848 378 2480 157 
Q 2112 -64 1696 -64 
Q 1389 -64 1139 22 
Q 890 109 739 259 
Q 589 410 589 589 
Q 589 742 681 832 
Q 774 922 934 922 
Q 1082 922 1162 851 
Q 1242 781 1296 678 
Q 1350 576 1411 470 
Q 1472 365 1577 294 
Q 1683 224 1882 224 
Q 2176 224 2409 486 
Q 2643 749 2777 1206 
Q 2912 1664 2912 2240 
L 2893 2253 
Q 2688 1958 2445 1817 
Q 2202 1677 1882 1677 
Q 1453 1677 1107 1885 
Q 762 2093 563 2454 
Q 365 2816 365 3270 
z
M 2925 2803 
L 2925 3117 
Q 2925 3904 2697 4304 
Q 2470 4704 2035 4704 
Q 1594 4704 1379 4361 
Q 1165 4019 1165 3296 
Q 1165 2656 1373 2323 
Q 1581 1990 1971 1990 
Q 2266 1990 2490 2182 
Q 2714 2374 2925 2803 
z
" transform="scale(0.015625)"/>
       </defs>
       <use xlink:href="#LibreBaskerville-Regular-32"/>
       <use xlink:href="#LibreBaskerville-Regular-30" x="61.599991"/>
       <use xlink:href="#LibreBaskerville-Regular-30" x="132.999985"/>
       <use xlink:href="#LibreBaskerville-Regular-39" x="204.399979"/>
      </g>
     </g>
    </g>
    <g id="xtick_5">
     <g id="line2d_5">
      <g>
       <use xlink:href="#md7fff3a260" x="341.113977" y="366.473125" style="fill: #2a3f5f; stroke: #2a3f5f; stroke-width: 0.8"/>
      </g>
     </g>
     <g id="text_5">
      <!-- 2011 -->
      <g style="fill: #2a3f5f" transform="translate(330.004602 381.773125) scale(0.1 -0.1)">
       <defs>
        <path id="LibreBaskerville-Regular-31" d="M 1766 4992 
L 1766 1037 
Q 1766 710 1814 540 
Q 1862 371 2003 313 
Q 2144 256 2432 243 
L 2432 0 
L 474 0 
L 474 243 
Q 762 256 902 317 
Q 1043 378 1091 534 
Q 1139 691 1139 992 
L 1139 3341 
Q 1139 3712 1136 3955 
Q 1133 4198 1114 4275 
Q 1082 4416 922 4448 
Q 762 4480 442 4480 
L 442 4723 
Q 653 4736 880 4771 
Q 1107 4806 1334 4864 
Q 1562 4922 1766 4992 
z
" transform="scale(0.015625)"/>
       </defs>
       <use xlink:href="#LibreBaskerville-Regular-32"/>
       <use xlink:href="#LibreBaskerville-Regular-30" x="61.599991"/>
       <use xlink:href="#LibreBaskerville-Regular-31" x="132.999985"/>
       <use xlink:href="#LibreBaskerville-Regular-31" x="177.599976"/>
      </g>
     </g>
    </g>
    <g id="xtick_6">
     <g id="line2d_6">
      <g>
       <use xlink:href="#md7fff3a260" x="412.132159" y="366.473125" style="fill: #2a3f5f; stroke: #2a3f5f; stroke-width: 0.8"/>
      </g>
     </g>
     <g id="text_6">
      <!-- 2013 -->
      <g style="fill: #2a3f5f" transform="translate(400.172784 381.773125) scale(0.1 -0.1)">
       <use xlink:href="#LibreBaskerville-Regular-32"/>
       <use xlink:href="#LibreBaskerville-Regular-30" x="61.599991"/>
       <use xlink:href="#LibreBaskerville-Regular-31" x="132.999985"/>
       <use xlink:href="#LibreBaskerville-Regular-33" x="177.599976"/>
      </g>
     </g>
    </g>
    <g id="xtick_7">
     <g id="line2d_7">
      <g>
       <use xlink:href="#md7fff3a260" x="483.150341" y="366.473125" style="fill: #2a3f5f; stroke: #2a3f5f; stroke-width: 0.8"/>
      </g>
     </g>
     <g id="text_7">
      <!-- 2015 -->
      <g style="fill: #2a3f5f" transform="translate(471.43081 381.773125) scale(0.1 -0.1)">
       <use xlink:href="#LibreBaskerville-Regular-32"/>
       <use xlink:href="#LibreBaskerville-Regular-30" x="61.599991"/>
       <use xlink:href="#LibreBaskerville-Regular-31" x="132.999985"/>
       <use xlink:href="#LibreBaskerville-Regular-35" x="177.599976"/>
      </g>
     </g>
    </g>
    <g id="xtick_8">
     <g id="line2d_8">
      <g>
       <use xlink:href="#md7fff3a260" x="554.168523" y="366.473125" style="fill: #2a3f5f; stroke: #2a3f5f; stroke-width: 0.8"/>
      </g>
     </g>
     <g id="text_8">
      <!-- 2017 -->
      <g style="fill: #2a3f5f" transform="translate(542.778679 381.773125) scale(0.1 -0.1)">
       <use xlink:href="#LibreBaskerville-Regular-32"/>
       <use xlink:href="#LibreBaskerville-Regular-30" x="61.599991"/>
       <use xlink:href="#LibreBaskerville-Regular-31" x="132.999985"/>
       <use xlink:href="#LibreBaskerville-Regular-37" x="177.599976"/>
      </g>
     </g>
    </g>
    <g id="xtick_9">
     <g id="line2d_9">
      <g>
       <use xlink:href="#md7fff3a260" x="625.186705" y="366.473125" style="fill: #2a3f5f; stroke: #2a3f5f; stroke-width: 0.8"/>
      </g>
     </g>
     <g id="text_9">
      <!-- 2019 -->
      <g style="fill: #2a3f5f" transform="translate(613.092173 381.773125) scale(0.1 -0.1)">
       <use xlink:href="#LibreBaskerville-Regular-32"/>
       <use xlink:href="#LibreBaskerville-Regular-30" x="61.599991"/>
       <use xlink:href="#LibreBaskerville-Regular-31" x="132.999985"/>
       <use xlink:href="#LibreBaskerville-Regular-39" x="177.599976"/>
      </g>
     </g>
    </g>
    <g id="xtick_10">
     <g id="line2d_10">
      <g>
       <use xlink:href="#md7fff3a260" x="696.204886" y="366.473125" style="fill: #2a3f5f; stroke: #2a3f5f; stroke-width: 0.8"/>
      </g>
     </g>
     <g id="text_10">
      <!-- 2021 -->
      <g style="fill: #2a3f5f" transform="translate(684.245511 381.773125) scale(0.1 -0.1)">
       <use xlink:href="#LibreBaskerville-Regular-32"/>
       <use xlink:href="#LibreBaskerville-Regular-30" x="61.599991"/>
       <use xlink:href="#LibreBaskerville-Regular-32" x="132.999985"/>
       <use xlink:href="#LibreBaskerville-Regular-31" x="194.599976"/>
      </g>
     </g>
    </g>
    <g id="xtick_11">
     <g id="line2d_11">
      <g>
       <use xlink:href="#md7fff3a260" x="767.223068" y="366.473125" style="fill: #2a3f5f; stroke: #2a3f5f; stroke-width: 0.8"/>
      </g>
     </g>
     <g id="text_11">
      <!-- 2023 -->
      <g style="fill: #2a3f5f" transform="translate(754.413693 381.773125) scale(0.1 -0.1)">
       <use xlink:href="#LibreBaskerville-Regular-32"/>
       <use xlink:href="#LibreBaskerville-Regular-30" x="61.599991"/>
       <use xlink:href="#LibreBaskerville-Regular-32" x="132.999985"/>
       <use xlink:href="#LibreBaskerville-Regular-33" x="194.599976"/>
      </g>
     </g>
    </g>
    <g id="xtick_12">
     <g id="line2d_12">
      <g>
       <use xlink:href="#md7fff3a260" x="838.24125" y="366.473125" style="fill: #2a3f5f; stroke: #2a3f5f; stroke-width: 0.8"/>
      </g>
     </g>
     <g id="text_12">
      <!-- 2025 -->
      <g style="fill: #2a3f5f" transform="translate(825.671719 381.773125) scale(0.1 -0.1)">
       <use xlink:href="#LibreBaskerville-Regular-32"/>
       <use xlink:href="#LibreBaskerville-Regular-30" x="61.599991"/>
       <use xlink:href="#LibreBaskerville-Regular-32" x="132.999985"/>
       <use xlink:href="#LibreBaskerville-Regular-35" x="194.599976"/>
      </g>
     </g>
    </g>
    <g id="text_13">
     <!-- Year -->
     <g style="fill: #2a3f5f" transform="translate(433.619063 398.233125) scale(0.12 -0.12)">
      <defs>
       <path id="LibreBaskerville-Regular-59" d="M 1306 0 
L 1306 243 
Q 1613 243 1763 310 
Q 1914 378 1962 576 
Q 2010 774 2010 1165 
L 2010 1946 
L 730 4134 
Q 602 4358 493 4476 
Q 384 4595 265 4640 
Q 147 4685 -32 4685 
L -32 4928 
L 1984 4928 
L 1984 4685 
Q 1670 4685 1536 4637 
Q 1402 4589 1402 4467 
Q 1402 4403 1437 4307 
Q 1472 4211 1549 4083 
L 2541 2387 
L 2566 2387 
L 3290 3603 
Q 3494 3942 3580 4144 
Q 3667 4346 3667 4467 
Q 3667 4589 3574 4637 
Q 3482 4685 3251 4685 
L 3251 4928 
L 4717 4928 
L 4717 4685 
Q 4582 4685 4473 4643 
Q 4365 4602 4253 4490 
Q 4141 4378 4003 4173 
Q 3866 3968 3667 3635 
L 2682 1971 
L 2682 1210 
Q 2682 794 2730 586 
Q 2778 378 2925 310 
Q 3072 243 3379 243 
L 3379 0 
L 1306 0 
z
" transform="scale(0.015625)"/>
       <path id="LibreBaskerville-Regular-65" d="M 3142 774 
L 3341 595 
Q 2797 -64 1990 -64 
Q 1491 -64 1113 153 
Q 736 371 525 758 
Q 314 1146 314 1658 
Q 314 2182 538 2588 
Q 762 2995 1155 3225 
Q 1549 3456 2067 3456 
Q 2682 3456 3024 3120 
Q 3366 2784 3366 2157 
Q 3366 2074 3331 2051 
Q 3296 2029 3168 2029 
L 1062 2029 
Q 1050 1978 1043 1904 
Q 1037 1830 1037 1741 
Q 1037 1299 1177 966 
Q 1318 634 1574 451 
Q 1830 269 2170 269 
Q 2432 269 2669 390 
Q 2906 512 3142 774 
z
M 1107 2323 
L 2285 2323 
Q 2547 2323 2608 2355 
Q 2669 2387 2669 2502 
Q 2669 2797 2477 2973 
Q 2285 3149 1965 3149 
Q 1626 3149 1408 2941 
Q 1190 2733 1107 2323 
z
" transform="scale(0.015625)"/>
       <path id="LibreBaskerville-Regular-61" d="M 2842 -64 
Q 2566 -64 2425 115 
Q 2285 294 2285 621 
L 2253 621 
Q 2080 307 1785 124 
Q 1491 -58 1133 -58 
Q 870 -58 678 38 
Q 486 134 380 304 
Q 275 474 275 704 
Q 275 1005 499 1257 
Q 723 1510 1312 1766 
L 2234 2170 
L 2234 2432 
Q 2234 2835 2070 3024 
Q 1907 3213 1555 3213 
Q 1350 3213 1257 3129 
Q 1165 3046 1082 2797 
Q 1011 2618 944 2554 
Q 877 2490 749 2490 
Q 595 2490 512 2573 
Q 429 2656 429 2810 
Q 429 3117 755 3286 
Q 1082 3456 1683 3456 
Q 2330 3456 2595 3232 
Q 2861 3008 2861 2458 
L 2861 1024 
Q 2861 627 2937 460 
Q 3014 294 3181 294 
Q 3245 294 3331 323 
Q 3418 352 3462 435 
L 3552 282 
Q 3475 134 3270 35 
Q 3066 -64 2842 -64 
z
M 1421 326 
Q 1651 326 1836 470 
Q 2022 614 2128 857 
Q 2234 1101 2234 1389 
L 2234 1894 
Q 1747 1709 1459 1529 
Q 1171 1350 1046 1174 
Q 922 998 922 813 
Q 922 595 1062 460 
Q 1203 326 1421 326 
z
" transform="scale(0.015625)"/>
       <path id="LibreBaskerville-Regular-72" d="M 1421 1235 
L 1421 1018 
Q 1421 666 1449 502 
Q 1478 339 1590 291 
Q 1702 243 1946 224 
L 1946 0 
L 243 0 
L 243 224 
Q 493 237 608 288 
Q 723 339 758 496 
Q 794 653 794 973 
L 794 1722 
Q 794 2157 781 2403 
Q 768 2650 717 2758 
Q 666 2867 550 2892 
Q 435 2918 230 2918 
L 230 3142 
L 1350 3386 
L 1440 2592 
L 1466 2592 
Q 1638 2976 1945 3216 
Q 2253 3456 2579 3456 
Q 2784 3456 2902 3357 
Q 3021 3258 3021 3091 
Q 3021 2938 2925 2851 
Q 2829 2765 2650 2765 
Q 2515 2765 2432 2806 
Q 2349 2848 2285 2886 
Q 2221 2925 2144 2925 
Q 1971 2925 1798 2704 
Q 1626 2483 1530 2144 
Q 1478 1965 1449 1728 
Q 1421 1491 1421 1235 
z
" transform="scale(0.015625)"/>
      </defs>
      <use xlink:href="#LibreBaskerville-Regular-59"/>
      <use xlink:href="#LibreBaskerville-Regular-65" x="73.299988"/>
      <use xlink:href="#LibreBaskerville-Regular-61" x="130.599976"/>
      <use xlink:href="#LibreBaskerville-Regular-72" x="185.999969"/>
     </g>
    </g>
   </g>
   <g id="matplotlib.axis_2">
    <g id="ytick_1">
     <g id="line2d_13">
      <path d="M 57.04125 356.551979 
L 838.24125 356.551979 
" clip-path="url(#pe3ce830b40)" style="fill: none; stroke-dasharray: 2.96,1.28; stroke-dashoffset: 0; stroke: #b0b0b0; stroke-opacity: 0.5; stroke-width: 0.8"/>
     </g>
     <g id="line2d_14">
      <defs>
       <path id="m95a91c212d" d="M 0 0 
L -3.5 0 
" style="stroke: #2a3f5f; stroke-width: 0.8"/>
      </defs>
      <g>
       <use xlink:href="#m95a91c212d" x="57.04125" y="356.551979" style="fill: #2a3f5f; stroke: #2a3f5f; stroke-width: 0.8"/>
      </g>
     </g>
     <g id="text_14">
      <!-- 0 -->
      <g style="fill: #2a3f5f" transform="translate(42.900625 360.701979) scale(0.1 -0.1)">
       <use xlink:href="#LibreBaskerville-Regular-30"/>
      </g>
     </g>
    </g>
    <g id="ytick_2">
     <g id="line2d_15">
      <path d="M 57.04125 313.228197 
L 838.24125 313.228197 
" clip-path="url(#pe3ce830b40)" style="fill: none; stroke-dasharray: 2.96,1.28; stroke-dashoffset: 0; stroke: #b0b0b0; stroke-opacity: 0.5; stroke-width: 0.8"/>
     </g>
     <g id="line2d_16">
      <g>
       <use xlink:href="#m95a91c212d" x="57.04125" y="313.228197" style="fill: #2a3f5f; stroke: #2a3f5f; stroke-width: 0.8"/>
      </g>
     </g>
     <g id="text_15">
      <!-- 200 -->
      <g style="fill: #2a3f5f" transform="translate(29.600625 317.378197) scale(0.1 -0.1)">
       <use xlink:href="#LibreBaskerville-Regular-32"/>
       <use xlink:href="#LibreBaskerville-Regular-30" x="61.599991"/>
       <use xlink:href="#LibreBaskerville-Regular-30" x="132.999985"/>
      </g>
     </g>
    </g>
    <g id="ytick_3">
     <g id="line2d_17">
      <path d="M 57.04125 269.904414 
L 838.24125 269.904414 
" clip-path="url(#pe3ce830b40)" style="fill: none; stroke-dasharray: 2.96,1.28; stroke-dashoffset: 0; stroke: #b0b0b0; stroke-opacity: 0.5; stroke-width: 0.8"/>
     </g>
     <g id="line2d_18">
      <g>
       <use xlink:href="#m95a91c212d" x="57.04125" y="269.904414" style="fill: #2a3f5f; stroke: #2a3f5f; stroke-width: 0.8"/>
      </g>
     </g>
     <g id="text_16">
      <!-- 400 -->
      <g style="fill: #2a3f5f" transform="translate(29.91 274.054414) scale(0.1 -0.1)">
       <defs>
        <path id="LibreBaskerville-Regular-34" d="M 1274 0 
L 1274 243 
Q 1555 243 1699 304 
Q 1843 365 1891 528 
Q 1939 691 1939 992 
L 1939 1146 
L 115 1146 
L 115 1466 
L 2368 4992 
L 2566 4992 
L 2566 1453 
Q 2835 1466 2960 1507 
Q 3085 1549 3123 1670 
Q 3162 1792 3162 2035 
L 3386 2035 
L 3386 608 
L 3162 608 
Q 3162 845 3123 963 
Q 3085 1082 2960 1123 
Q 2835 1165 2566 1171 
L 2566 1037 
Q 2566 710 2604 537 
Q 2643 365 2752 304 
Q 2861 243 3072 243 
L 3072 0 
L 1274 0 
z
M 435 1466 
L 1939 1466 
L 1939 3744 
L 1907 3744 
L 435 1466 
z
" transform="scale(0.015625)"/>
       </defs>
       <use xlink:href="#LibreBaskerville-Regular-34"/>
       <use xlink:href="#LibreBaskerville-Regular-30" x="58.499985"/>
       <use xlink:href="#LibreBaskerville-Regular-30" x="129.899979"/>
      </g>
     </g>
    </g>
    <g id="ytick_4">
     <g id="line2d_19">
      <path d="M 57.04125 226.580632 
L 838.24125 226.580632 
" clip-path="url(#pe3ce830b40)" style="fill: none; stroke-dasharray: 2.96,1.28; stroke-dashoffset: 0; stroke: #b0b0b0; stroke-opacity: 0.5; stroke-width: 0.8"/>
     </g>
     <g id="line2d_20">
      <g>
       <use xlink:href="#m95a91c212d" x="57.04125" y="226.580632" style="fill: #2a3f5f; stroke: #2a3f5f; stroke-width: 0.8"/>
      </g>
     </g>
     <g id="text_17">
      <!-- 600 -->
      <g style="fill: #2a3f5f" transform="translate(29.330313 230.730632) scale(0.1 -0.1)">
       <defs>
        <path id="LibreBaskerville-Regular-36" d="M 3750 1658 
Q 3750 1299 3619 985 
Q 3488 672 3254 435 
Q 3021 198 2713 67 
Q 2406 -64 2054 -64 
Q 1568 -64 1190 217 
Q 813 499 601 1001 
Q 390 1504 390 2157 
Q 390 2739 550 3254 
Q 710 3770 988 4160 
Q 1267 4550 1635 4771 
Q 2003 4992 2419 4992 
Q 2726 4992 2979 4905 
Q 3232 4819 3379 4672 
Q 3526 4525 3526 4339 
Q 3526 4186 3433 4096 
Q 3341 4006 3181 4006 
Q 3034 4006 2954 4076 
Q 2874 4147 2819 4249 
Q 2765 4352 2704 4457 
Q 2643 4563 2537 4633 
Q 2432 4704 2234 4704 
Q 1939 4704 1705 4438 
Q 1472 4173 1337 3718 
Q 1203 3264 1203 2688 
L 1222 2675 
Q 1427 2976 1670 3113 
Q 1914 3251 2234 3251 
Q 2669 3251 3011 3043 
Q 3354 2835 3552 2473 
Q 3750 2112 3750 1658 
z
M 1190 2125 
L 1190 1811 
Q 1190 1024 1417 624 
Q 1645 224 2080 224 
Q 2522 224 2736 569 
Q 2950 915 2950 1632 
Q 2950 2272 2745 2605 
Q 2541 2938 2144 2938 
Q 1850 2938 1626 2746 
Q 1402 2554 1190 2125 
z
" transform="scale(0.015625)"/>
       </defs>
       <use xlink:href="#LibreBaskerville-Regular-36"/>
       <use xlink:href="#LibreBaskerville-Regular-30" x="64.299988"/>
       <use xlink:href="#LibreBaskerville-Regular-30" x="135.699982"/>
      </g>
     </g>
    </g>
    <g id="ytick_5">
     <g id="line2d_21">
      <path d="M 57.04125 183.25685 
L 838.24125 183.25685 
" clip-path="url(#pe3ce830b40)" style="fill: none; stroke-dasharray: 2.96,1.28; stroke-dashoffset: 0; stroke: #b0b0b0; stroke-opacity: 0.5; stroke-width: 0.8"/>
     </g>
     <g id="line2d_22">
      <g>
       <use xlink:href="#m95a91c212d" x="57.04125" y="183.25685" style="fill: #2a3f5f; stroke: #2a3f5f; stroke-width: 0.8"/>
      </g>
     </g>
     <g id="text_18">
      <!-- 800 -->
      <g style="fill: #2a3f5f" transform="translate(29.700625 187.40685) scale(0.1 -0.1)">
       <defs>
        <path id="LibreBaskerville-Regular-38" d="M 1920 -64 
Q 1485 -64 1136 96 
Q 787 256 582 534 
Q 378 813 378 1152 
Q 378 1549 646 1881 
Q 915 2214 1453 2470 
Q 998 2714 774 3021 
Q 550 3328 550 3712 
Q 550 4243 960 4634 
Q 1350 4992 1920 4992 
Q 2419 4992 2816 4723 
Q 3053 4563 3177 4339 
Q 3302 4115 3302 3859 
Q 3302 3539 3100 3260 
Q 2899 2982 2464 2771 
Q 2976 2502 3232 2147 
Q 3488 1792 3488 1357 
Q 3488 954 3280 634 
Q 3072 314 2720 125 
Q 2368 -64 1920 -64 
z
M 1946 230 
Q 2381 230 2643 480 
Q 2906 730 2906 1146 
Q 2906 1434 2730 1648 
Q 2554 1862 2106 2118 
L 1722 2336 
Q 986 1926 986 1171 
Q 986 742 1245 486 
Q 1504 230 1946 230 
z
M 2195 2906 
Q 2470 3091 2620 3331 
Q 2771 3571 2771 3827 
Q 2771 4077 2656 4275 
Q 2541 4474 2342 4589 
Q 2144 4704 1888 4704 
Q 1536 4704 1318 4499 
Q 1101 4294 1101 3962 
Q 1101 3706 1286 3498 
Q 1472 3290 1894 3066 
L 2195 2906 
z
" transform="scale(0.015625)"/>
       </defs>
       <use xlink:href="#LibreBaskerville-Regular-38"/>
       <use xlink:href="#LibreBaskerville-Regular-30" x="60.599991"/>
       <use xlink:href="#LibreBaskerville-Regular-30" x="131.999985"/>
      </g>
     </g>
    </g>
    <g id="ytick_6">
     <g id="line2d_23">
      <path d="M 57.04125 139.933068 
L 838.24125 139.933068 
" clip-path="url(#pe3ce830b40)" style="fill: none; stroke-dasharray: 2.96,1.28; stroke-dashoffset: 0; stroke: #b0b0b0; stroke-opacity: 0.5; stroke-width: 0.8"/>
     </g>
     <g id="line2d_24">
      <g>
       <use xlink:href="#m95a91c212d" x="57.04125" y="139.933068" style="fill: #2a3f5f; stroke: #2a3f5f; stroke-width: 0.8"/>
      </g>
     </g>
     <g id="text_19">
      <!-- 1000 -->
      <g style="fill: #2a3f5f" transform="translate(24.16 144.083068) scale(0.1 -0.1)">
       <use xlink:href="#LibreBaskerville-Regular-31"/>
       <use xlink:href="#LibreBaskerville-Regular-30" x="44.599991"/>
       <use xlink:href="#LibreBaskerville-Regular-30" x="115.999985"/>
       <use xlink:href="#LibreBaskerville-Regular-30" x="187.399979"/>
      </g>
     </g>
    </g>
    <g id="ytick_7">
     <g id="line2d_25">
      <path d="M 57.04125 96.609285 
L 838.24125 96.609285 
" clip-path="url(#pe3ce830b40)" style="fill: none; stroke-dasharray: 2.96,1.28; stroke-dashoffset: 0; stroke: #b0b0b0; stroke-opacity: 0.5; stroke-width: 0.8"/>
     </g>
     <g id="line2d_26">
      <g>
       <use xlink:href="#m95a91c212d" x="57.04125" y="96.609285" style="fill: #2a3f5f; stroke: #2a3f5f; stroke-width: 0.8"/>
      </g>
     </g>
     <g id="text_20">
      <!-- 1200 -->
      <g style="fill: #2a3f5f" transform="translate(25.14125 100.759285) scale(0.1 -0.1)">
       <use xlink:href="#LibreBaskerville-Regular-31"/>
       <use xlink:href="#LibreBaskerville-Regular-32" x="44.599991"/>
       <use xlink:href="#LibreBaskerville-Regular-30" x="106.199982"/>
       <use xlink:href="#LibreBaskerville-Regular-30" x="177.599976"/>
      </g>
     </g>
    </g>
    <g id="ytick_8">
     <g id="line2d_27">
      <path d="M 57.04125 53.285503 
L 838.24125 53.285503 
" clip-path="url(#pe3ce830b40)" style="fill: none; stroke-dasharray: 2.96,1.28; stroke-dashoffset: 0; stroke: #b0b0b0; stroke-opacity: 0.5; stroke-width: 0.8"/>
     </g>
     <g id="line2d_28">
      <g>
       <use xlink:href="#m95a91c212d" x="57.04125" y="53.285503" style="fill: #2a3f5f; stroke: #2a3f5f; stroke-width: 0.8"/>
      </g>
     </g>
     <g id="text_21">
      <!-- 1400 -->
      <g style="fill: #2a3f5f" transform="translate(25.450625 57.435503) scale(0.1 -0.1)">
       <use xlink:href="#LibreBaskerville-Regular-31"/>
       <use xlink:href="#LibreBaskerville-Regular-34" x="44.599991"/>
       <use xlink:href="#LibreBaskerville-Regular-30" x="103.099976"/>
       <use xlink:href="#LibreBaskerville-Regular-30" x="174.499969"/>
      </g>
     </g>
    </g>
    <g id="text_22">
     <!-- Reported Cases -->
     <g style="fill: #2a3f5f" transform="translate(17.16 247.680625) rotate(-90) scale(0.12 -0.12)">
      <defs>
       <path id="LibreBaskerville-Regular-52" d="M 4211 3693 
Q 4211 3187 3904 2844 
Q 3597 2502 2925 2387 
L 4339 685 
Q 4512 474 4723 381 
Q 4934 288 5216 243 
L 5216 0 
L 3981 0 
L 2413 2010 
Q 2304 2157 2208 2227 
Q 2112 2298 1987 2317 
Q 1862 2336 1664 2336 
L 1664 1005 
Q 1664 691 1725 524 
Q 1786 358 1974 300 
Q 2163 243 2547 243 
L 2547 0 
L 288 0 
L 288 243 
Q 589 256 739 310 
Q 890 365 941 518 
Q 992 672 992 973 
L 992 3955 
Q 992 4256 947 4406 
Q 902 4557 764 4614 
Q 627 4672 352 4685 
L 352 4928 
L 2362 4928 
Q 3238 4928 3724 4601 
Q 4211 4275 4211 3693 
z
M 1664 4518 
L 1664 2656 
L 2118 2656 
Q 2752 2656 3065 2893 
Q 3379 3130 3379 3661 
Q 3379 4173 3132 4400 
Q 2886 4627 2362 4627 
L 1773 4627 
Q 1664 4627 1664 4518 
z
" transform="scale(0.015625)"/>
       <path id="LibreBaskerville-Regular-70" d="M 128 -1600 
L 128 -1376 
Q 384 -1363 515 -1305 
Q 646 -1248 694 -1088 
Q 742 -928 742 -621 
L 742 1773 
Q 742 2144 732 2384 
Q 723 2624 698 2707 
Q 672 2861 553 2915 
Q 435 2970 115 2970 
L 115 3187 
L 1344 3430 
L 1344 2931 
L 1370 2931 
Q 1574 3174 1811 3315 
Q 2048 3456 2362 3456 
Q 2848 3456 3222 3229 
Q 3597 3002 3814 2602 
Q 4032 2202 4032 1690 
Q 4032 1171 3811 774 
Q 3590 378 3212 157 
Q 2835 -64 2355 -64 
Q 2061 -64 1821 35 
Q 1581 134 1395 358 
L 1370 358 
L 1370 -576 
Q 1370 -915 1421 -1081 
Q 1472 -1248 1629 -1305 
Q 1786 -1363 2099 -1376 
L 2099 -1600 
L 128 -1600 
z
M 2323 250 
Q 2758 250 3033 624 
Q 3309 998 3309 1664 
Q 3309 2106 3181 2442 
Q 3053 2778 2822 2963 
Q 2592 3149 2285 3149 
Q 2054 3149 1859 3043 
Q 1664 2938 1536 2746 
Q 1453 2618 1411 2442 
Q 1370 2266 1370 1984 
L 1370 1485 
Q 1370 1139 1405 972 
Q 1440 806 1542 678 
Q 1690 480 1898 365 
Q 2106 250 2323 250 
z
" transform="scale(0.015625)"/>
       <path id="LibreBaskerville-Regular-6f" d="M 2080 3456 
Q 2445 3456 2771 3328 
Q 3098 3200 3344 2966 
Q 3590 2733 3734 2416 
Q 3878 2099 3878 1722 
Q 3878 1331 3734 1004 
Q 3590 678 3344 438 
Q 3098 198 2771 67 
Q 2445 -64 2080 -64 
Q 1722 -64 1402 67 
Q 1082 198 835 438 
Q 589 678 448 1004 
Q 307 1331 307 1722 
Q 307 2227 550 2617 
Q 794 3008 1197 3232 
Q 1600 3456 2080 3456 
z
M 2080 3149 
Q 1766 3149 1529 2969 
Q 1293 2790 1161 2467 
Q 1030 2144 1030 1715 
Q 1030 1056 1315 659 
Q 1600 262 2080 262 
Q 2573 262 2864 659 
Q 3155 1056 3155 1715 
Q 3155 2144 3020 2464 
Q 2886 2784 2646 2966 
Q 2406 3149 2080 3149 
z
" transform="scale(0.015625)"/>
       <path id="LibreBaskerville-Regular-74" d="M 640 2989 
L 256 2989 
L 256 3226 
Q 595 3430 787 3625 
Q 979 3821 1082 4096 
L 1267 4096 
L 1267 3290 
L 2125 3290 
L 2125 2989 
L 1267 2989 
L 1267 1043 
Q 1267 595 1360 422 
Q 1453 250 1709 250 
Q 1869 250 1984 317 
Q 2099 384 2202 544 
L 2362 422 
Q 2176 -64 1504 -64 
Q 1082 -64 861 141 
Q 640 346 640 717 
L 640 2989 
z
" transform="scale(0.015625)"/>
       <path id="LibreBaskerville-Regular-64" d="M 1971 -64 
Q 1491 -64 1113 163 
Q 736 390 521 790 
Q 307 1190 307 1702 
Q 307 2208 518 2605 
Q 730 3002 1104 3229 
Q 1478 3456 1958 3456 
Q 2259 3456 2515 3353 
Q 2771 3251 2957 3027 
L 2982 3027 
L 2982 3680 
Q 2982 4038 2972 4288 
Q 2963 4538 2944 4621 
Q 2912 4762 2765 4819 
Q 2618 4877 2285 4877 
L 2285 5069 
L 3597 5312 
L 3597 1619 
Q 3597 1178 3606 893 
Q 3616 608 3642 486 
Q 3680 333 3773 278 
Q 3866 224 4160 224 
L 4160 6 
L 3098 -64 
L 3098 538 
L 3072 538 
Q 2842 218 2582 77 
Q 2323 -64 1971 -64 
z
M 2970 1530 
L 2970 1952 
Q 2970 2291 2934 2460 
Q 2899 2630 2797 2758 
Q 2656 2950 2425 3049 
Q 2195 3149 1971 3149 
Q 1517 3149 1273 2765 
Q 1030 2381 1030 1734 
Q 1030 1056 1270 649 
Q 1510 243 1971 243 
Q 2195 243 2438 348 
Q 2682 454 2803 646 
Q 2893 787 2931 985 
Q 2970 1184 2970 1530 
z
" transform="scale(0.015625)"/>
       <path id="LibreBaskerville-Regular-20" transform="scale(0.015625)"/>
       <path id="LibreBaskerville-Regular-43" d="M 4294 4531 
L 4410 4928 
L 4589 4928 
L 4646 3456 
L 4410 3456 
Q 4269 4013 3865 4336 
Q 3462 4659 2893 4659 
Q 2374 4659 2006 4390 
Q 1638 4122 1440 3619 
Q 1242 3117 1242 2419 
Q 1242 1395 1674 838 
Q 2106 282 2912 282 
Q 3520 282 3923 614 
Q 4326 947 4499 1594 
L 4762 1594 
L 4762 0 
L 4538 0 
L 4390 506 
Q 3718 -64 2765 -64 
Q 2042 -64 1507 237 
Q 973 538 678 1085 
Q 384 1632 384 2381 
Q 384 2963 560 3440 
Q 736 3917 1062 4265 
Q 1389 4614 1840 4803 
Q 2291 4992 2835 4992 
Q 3219 4992 3561 4883 
Q 3904 4774 4294 4531 
z
" transform="scale(0.015625)"/>
       <path id="LibreBaskerville-Regular-73" d="M 678 224 
L 550 0 
L 410 0 
L 410 1101 
L 570 1101 
Q 698 646 922 422 
Q 1146 198 1478 198 
Q 1734 198 1884 323 
Q 2035 448 2035 704 
Q 2035 832 1980 918 
Q 1926 1005 1766 1117 
Q 1606 1229 1293 1421 
Q 1005 1606 813 1753 
Q 621 1901 525 2067 
Q 429 2234 429 2470 
Q 429 2765 557 2985 
Q 685 3206 899 3331 
Q 1114 3456 1382 3456 
Q 1555 3456 1740 3401 
Q 1926 3347 2067 3258 
L 2195 3392 
L 2317 3392 
L 2317 2470 
L 2150 2470 
Q 2010 2861 1843 3027 
Q 1677 3194 1434 3194 
Q 1216 3194 1085 3078 
Q 954 2963 954 2758 
Q 954 2547 1104 2412 
Q 1254 2278 1581 2074 
Q 1952 1843 2176 1673 
Q 2400 1504 2502 1328 
Q 2605 1152 2605 909 
Q 2605 461 2307 198 
Q 2010 -64 1536 -64 
Q 1286 -64 1068 9 
Q 851 83 678 224 
z
" transform="scale(0.015625)"/>
      </defs>
      <use xlink:href="#LibreBaskerville-Regular-52"/>
      <use xlink:href="#LibreBaskerville-Regular-65" x="78.799988"/>
      <use xlink:href="#LibreBaskerville-Regular-70" x="136.099976"/>
      <use xlink:href="#LibreBaskerville-Regular-6f" x="203.999969"/>
      <use xlink:href="#LibreBaskerville-Regular-72" x="269.399963"/>
      <use xlink:href="#LibreBaskerville-Regular-74" x="317.09996"/>
      <use xlink:href="#LibreBaskerville-Regular-65" x="354.899948"/>
      <use xlink:href="#LibreBaskerville-Regular-64" x="412.199936"/>
      <use xlink:href="#LibreBaskerville-Regular-20" x="479.699921"/>
      <use xlink:href="#LibreBaskerville-Regular-43" x="508.399918"/>
      <use xlink:href="#LibreBaskerville-Regular-61" x="588.599899"/>
      <use xlink:href="#LibreBaskerville-Regular-73" x="643.999893"/>
      <use xlink:href="#LibreBaskerville-Regular-65" x="689.399887"/>
      <use xlink:href="#LibreBaskerville-Regular-73" x="746.699875"/>
     </g>
    </g>
   </g>
   <g id="line2d_29">
    <path d="M 57.04125 76.247108 
L 92.550341 127.58579 
L 128.059432 171.34281 
L 163.568523 138.849973 
L 199.077614 48.953125 
L 234.586705 84.695245 
L 270.095795 140.799543 
L 305.604886 197.770317 
L 341.113977 234.595532 
L 376.623068 275.753125 
L 412.132159 282.035073 
L 447.64125 308.895818 
L 483.150341 311.928483 
L 518.659432 285.717595 
L 554.168523 288.533641 
L 589.677614 298.931348 
L 625.186705 308.462581 
L 660.695795 344.637939 
L 696.204886 345.504414 
L 731.713977 351.353125 
L 767.223068 345.937652 
L 802.732159 338.35599 
L 838.24125 339.222466 
" clip-path="url(#pe3ce830b40)" style="fill: none; stroke: #440154; stroke-width: 2.5; stroke-linecap: square"/>
    <defs>
     <path id="m7f2cf893d9" d="M 0 3 
C 0.795609 3 1.55874 2.683901 2.12132 2.12132 
C 2.683901 1.55874 3 0.795609 3 0 
C 3 -0.795609 2.683901 -1.55874 2.12132 -2.12132 
C 1.55874 -2.683901 0.795609 -3 0 -3 
C -0.795609 -3 -1.55874 -2.683901 -2.12132 -2.12132 
C -2.683901 -1.55874 -3 -0.795609 -3 0 
C -3 0.795609 -2.683901 1.55874 -2.12132 2.12132 
C -1.55874 2.683901 -0.795609 3 0 3 
z
" style="stroke: #ffffff; stroke-width: 0.75"/>
    </defs>
    <g clip-path="url(#pe3ce830b40)">
     <use xlink:href="#m7f2cf893d9" x="57.04125" y="76.247108" style="fill: #440154; stroke: #ffffff; stroke-width: 0.75"/>
     <use xlink:href="#m7f2cf893d9" x="92.550341" y="127.58579" style="fill: #440154; stroke: #ffffff; stroke-width: 0.75"/>
     <use xlink:href="#m7f2cf893d9" x="128.059432" y="171.34281" style="fill: #440154; stroke: #ffffff; stroke-width: 0.75"/>
     <use xlink:href="#m7f2cf893d9" x="163.568523" y="138.849973" style="fill: #440154; stroke: #ffffff; stroke-width: 0.75"/>
     <use xlink:href="#m7f2cf893d9" x="199.077614" y="48.953125" style="fill: #440154; stroke: #ffffff; stroke-width: 0.75"/>
     <use xlink:href="#m7f2cf893d9" x="234.586705" y="84.695245" style="fill: #440154; stroke: #ffffff; stroke-width: 0.75"/>
     <use xlink:href="#m7f2cf893d9" x="270.095795" y="140.799543" style="fill: #440154; stroke: #ffffff; stroke-width: 0.75"/>
     <use xlink:href="#m7f2cf893d9" x="305.604886" y="197.770317" style="fill: #440154; stroke: #ffffff; stroke-width: 0.75"/>
     <use xlink:href="#m7f2cf893d9" x="341.113977" y="234.595532" style="fill: #440154; stroke: #ffffff; stroke-width: 0.75"/>
     <use xlink:href="#m7f2cf893d9" x="376.623068" y="275.753125" style="fill: #440154; stroke: #ffffff; stroke-width: 0.75"/>
     <use xlink:href="#m7f2cf893d9" x="412.132159" y="282.035073" style="fill: #440154; stroke: #ffffff; stroke-width: 0.75"/>
     <use xlink:href="#m7f2cf893d9" x="447.64125" y="308.895818" style="fill: #440154; stroke: #ffffff; stroke-width: 0.75"/>
     <use xlink:href="#m7f2cf893d9" x="483.150341" y="311.928483" style="fill: #440154; stroke: #ffffff; stroke-width: 0.75"/>
     <use xlink:href="#m7f2cf893d9" x="518.659432" y="285.717595" style="fill: #440154; stroke: #ffffff; stroke-width: 0.75"/>
     <use xlink:href="#m7f2cf893d9" x="554.168523" y="288.533641" style="fill: #440154; stroke: #ffffff; stroke-width: 0.75"/>
     <use xlink:href="#m7f2cf893d9" x="589.677614" y="298.931348" style="fill: #440154; stroke: #ffffff; stroke-width: 0.75"/>
     <use xlink:href="#m7f2cf893d9" x="625.186705" y="308.462581" style="fill: #440154; stroke: #ffffff; stroke-width: 0.75"/>
     <use xlink:href="#m7f2cf893d9" x="660.695795" y="344.637939" style="fill: #440154; stroke: #ffffff; stroke-width: 0.75"/>
     <use xlink:href="#m7f2cf893d9" x="696.204886" y="345.504414" style="fill: #440154; stroke: #ffffff; stroke-width: 0.75"/>
     <use xlink:href="#m7f2cf893d9" x="731.713977" y="351.353125" style="fill: #440154; stroke: #ffffff; stroke-width: 0.75"/>
     <use xlink:href="#m7f2cf893d9" x="767.223068" y="345.937652" style="fill: #440154; stroke: #ffffff; stroke-width: 0.75"/>
     <use xlink:href="#m7f2cf893d9" x="802.732159" y="338.35599" style="fill: #440154; stroke: #ffffff; stroke-width: 0.75"/>
     <use xlink:href="#m7f2cf893d9" x="838.24125" y="339.222466" style="fill: #440154; stroke: #ffffff; stroke-width: 0.75"/>
    </g>
   </g>
   <g id="patch_3">
    <path d="M 57.04125 366.473125 
L 57.04125 33.833125 
" style="fill: none; stroke: #2a3f5f; stroke-width: 0.8; stroke-linejoin: miter; stroke-linecap: square"/>
   </g>
   <g id="patch_4">
    <path d="M 57.04125 366.473125 
L 838.24125 366.473125 
" style="fill: none; stroke: #2a3f5f; stroke-width: 0.8; stroke-linejoin: miter; stroke-linecap: square"/>
   </g>
   <g id="text_23">
    <!-- Total number of incident reports of prostitution over time (2003-2025) -->
    <g style="fill: #2a3f5f" transform="translate(57.04125 18.833125) scale(0.14 -0.14)">
     <defs>
      <path id="LibreBaskerville-Regular-54" d="M 4966 4928 
L 5030 3706 
L 4768 3706 
Q 4742 4077 4624 4281 
Q 4506 4486 4275 4569 
Q 4045 4653 3674 4653 
Q 3360 4653 3203 4633 
Q 3046 4614 2998 4572 
Q 2950 4531 2950 4454 
L 2950 1030 
Q 2950 755 3004 585 
Q 3059 416 3238 336 
Q 3418 256 3776 243 
L 3776 0 
L 1357 0 
L 1357 243 
Q 1722 256 1898 336 
Q 2074 416 2131 585 
Q 2189 755 2189 1030 
L 2189 4454 
Q 2189 4531 2144 4572 
Q 2099 4614 1968 4633 
Q 1837 4653 1562 4653 
Q 1312 4653 1101 4630 
Q 890 4608 730 4518 
Q 570 4429 477 4237 
Q 384 4045 371 3706 
L 134 3706 
L 134 4928 
L 4966 4928 
z
" transform="scale(0.015625)"/>
      <path id="LibreBaskerville-Regular-6c" d="M 1338 5312 
L 1338 998 
Q 1338 678 1376 515 
Q 1414 352 1539 294 
Q 1664 237 1907 224 
L 1907 0 
L 141 0 
L 141 224 
Q 397 237 525 294 
Q 653 352 697 505 
Q 742 659 742 954 
L 742 3712 
Q 742 4058 732 4291 
Q 723 4525 704 4608 
Q 672 4755 553 4806 
Q 435 4858 128 4858 
L 128 5075 
L 1338 5312 
z
" transform="scale(0.015625)"/>
      <path id="LibreBaskerville-Regular-6e" d="M 1382 1862 
L 1382 1005 
Q 1382 659 1411 499 
Q 1440 339 1555 288 
Q 1670 237 1914 218 
L 1914 0 
L 237 0 
L 237 218 
Q 474 237 589 285 
Q 704 333 739 486 
Q 774 640 774 960 
L 774 1811 
Q 774 2189 764 2422 
Q 755 2656 736 2739 
Q 698 2912 602 2960 
Q 506 3008 224 3008 
L 224 3213 
L 1248 3456 
L 1325 2822 
L 1350 2822 
Q 1594 3123 1923 3289 
Q 2253 3456 2630 3456 
Q 2925 3456 3168 3360 
Q 3411 3264 3539 3098 
Q 3648 2950 3693 2716 
Q 3738 2483 3738 2074 
L 3738 1005 
Q 3738 659 3770 499 
Q 3802 339 3914 288 
Q 4026 237 4256 218 
L 4256 0 
L 2598 0 
L 2598 218 
Q 2842 230 2954 281 
Q 3066 333 3098 489 
Q 3130 646 3130 960 
L 3130 1805 
Q 3130 2528 2963 2819 
Q 2797 3110 2400 3110 
Q 2118 3110 1875 2960 
Q 1632 2810 1498 2547 
Q 1453 2464 1427 2384 
Q 1402 2304 1392 2185 
Q 1382 2067 1382 1862 
z
" transform="scale(0.015625)"/>
      <path id="LibreBaskerville-Regular-75" d="M 2963 1741 
L 2963 2368 
Q 2963 2720 2934 2880 
Q 2906 3040 2794 3091 
Q 2682 3142 2432 3168 
L 2432 3392 
L 3590 3392 
L 3590 1427 
Q 3590 1062 3600 832 
Q 3610 602 3629 486 
Q 3661 326 3757 278 
Q 3853 230 4147 230 
L 4147 6 
L 3091 -70 
L 3021 698 
L 2995 698 
Q 2752 307 2435 121 
Q 2118 -64 1773 -64 
Q 1504 -64 1251 38 
Q 998 141 870 314 
Q 666 582 666 1350 
L 666 2368 
Q 666 2630 650 2784 
Q 634 2938 582 3014 
Q 531 3091 425 3120 
Q 320 3149 134 3168 
L 134 3392 
L 1293 3392 
L 1293 1645 
Q 1293 954 1459 637 
Q 1626 320 1978 320 
Q 2541 320 2854 1056 
Q 2918 1203 2940 1334 
Q 2963 1466 2963 1741 
z
" transform="scale(0.015625)"/>
      <path id="LibreBaskerville-Regular-6d" d="M 1414 1837 
L 1414 1024 
Q 1414 672 1443 505 
Q 1472 339 1584 291 
Q 1696 243 1939 224 
L 1939 0 
L 237 0 
L 237 224 
Q 486 243 601 291 
Q 717 339 752 496 
Q 787 653 787 973 
L 787 1792 
Q 787 2157 777 2403 
Q 768 2650 742 2733 
Q 710 2899 614 2944 
Q 518 2989 224 2989 
L 224 3213 
L 1267 3456 
L 1350 2816 
L 1382 2816 
Q 1670 3142 1987 3299 
Q 2304 3456 2688 3456 
Q 3091 3456 3369 3289 
Q 3648 3123 3750 2822 
L 3776 2822 
Q 4013 3123 4355 3289 
Q 4698 3456 5075 3456 
Q 5376 3456 5622 3357 
Q 5869 3258 5997 3085 
Q 6112 2938 6160 2698 
Q 6208 2458 6208 2042 
L 6208 1024 
Q 6208 672 6240 509 
Q 6272 346 6384 294 
Q 6496 243 6739 224 
L 6739 0 
L 5037 0 
L 5037 224 
Q 5280 237 5395 288 
Q 5510 339 5545 496 
Q 5581 653 5581 973 
L 5581 1779 
Q 5581 2515 5414 2809 
Q 5248 3104 4832 3104 
Q 4557 3104 4307 2947 
Q 4058 2790 3917 2528 
Q 3872 2445 3849 2361 
Q 3827 2278 3817 2160 
Q 3808 2042 3808 1837 
L 3808 1024 
Q 3808 672 3840 509 
Q 3872 346 3984 294 
Q 4096 243 4346 224 
L 4346 0 
L 2643 0 
L 2643 224 
Q 2886 243 3001 291 
Q 3117 339 3149 496 
Q 3181 653 3181 973 
L 3181 1779 
Q 3181 2278 3110 2566 
Q 3040 2854 2880 2979 
Q 2720 3104 2445 3104 
Q 2163 3104 1907 2947 
Q 1651 2790 1523 2528 
Q 1478 2445 1456 2361 
Q 1434 2278 1424 2160 
Q 1414 2042 1414 1837 
z
" transform="scale(0.015625)"/>
      <path id="LibreBaskerville-Regular-62" d="M 2227 -70 
Q 1869 -70 1549 64 
Q 1229 198 1024 429 
L 723 0 
L 582 0 
L 582 3866 
Q 582 4512 499 4691 
Q 474 4755 432 4787 
Q 390 4819 294 4844 
Q 198 4870 -6 4896 
L -6 5056 
L 1197 5312 
L 1197 2938 
L 1222 2938 
Q 1427 3206 1676 3331 
Q 1926 3456 2246 3456 
Q 2707 3456 3078 3222 
Q 3450 2989 3664 2592 
Q 3878 2195 3878 1696 
Q 3878 1197 3660 797 
Q 3443 397 3068 163 
Q 2694 -70 2227 -70 
z
M 2157 237 
Q 2458 237 2682 416 
Q 2906 595 3030 921 
Q 3155 1248 3155 1677 
Q 3155 2112 3024 2445 
Q 2893 2778 2662 2966 
Q 2432 3155 2131 3155 
Q 1875 3155 1667 3030 
Q 1459 2906 1350 2682 
Q 1210 2400 1210 1907 
L 1210 1338 
Q 1210 1018 1331 768 
Q 1453 518 1667 377 
Q 1882 237 2157 237 
z
" transform="scale(0.015625)"/>
      <path id="LibreBaskerville-Regular-66" d="M 314 0 
L 314 224 
Q 557 237 675 291 
Q 794 346 829 502 
Q 864 659 864 979 
L 864 2989 
L 141 2989 
L 141 3290 
L 864 3290 
L 864 3750 
Q 864 4243 1037 4592 
Q 1210 4941 1546 5126 
Q 1882 5312 2355 5312 
Q 2752 5312 3001 5190 
Q 3251 5069 3251 4864 
Q 3251 4749 3171 4662 
Q 3091 4576 2970 4576 
Q 2886 4576 2803 4627 
Q 2720 4678 2579 4787 
Q 2438 4896 2355 4950 
Q 2272 5005 2131 5005 
Q 1946 5005 1795 4909 
Q 1645 4813 1562 4608 
Q 1510 4480 1488 4288 
Q 1466 4096 1466 3789 
L 1466 3290 
L 2496 3290 
L 2496 2989 
L 1466 2989 
L 1466 1030 
Q 1466 717 1520 544 
Q 1574 371 1718 300 
Q 1862 230 2131 224 
L 2131 0 
L 314 0 
z
" transform="scale(0.015625)"/>
      <path id="LibreBaskerville-Regular-69" d="M 1459 3456 
L 1459 1018 
Q 1459 691 1504 521 
Q 1549 352 1677 294 
Q 1805 237 2054 224 
L 2054 0 
L 218 0 
L 218 224 
Q 480 237 611 297 
Q 742 358 787 515 
Q 832 672 832 973 
L 832 1792 
Q 832 2163 822 2406 
Q 813 2650 787 2733 
Q 762 2880 643 2934 
Q 525 2989 205 2989 
L 205 3213 
L 1459 3456 
z
M 723 4755 
Q 723 4922 838 5037 
Q 954 5152 1120 5152 
Q 1286 5152 1401 5037 
Q 1517 4922 1517 4755 
Q 1517 4589 1401 4473 
Q 1286 4358 1120 4358 
Q 954 4358 838 4473 
Q 723 4589 723 4755 
z
" transform="scale(0.015625)"/>
      <path id="LibreBaskerville-Regular-63" d="M 3046 717 
L 3238 531 
Q 3008 256 2643 96 
Q 2278 -64 1856 -64 
Q 1402 -64 1053 153 
Q 704 371 509 761 
Q 314 1152 314 1670 
Q 314 2214 538 2614 
Q 762 3014 1162 3235 
Q 1562 3456 2093 3456 
Q 2426 3456 2678 3385 
Q 2931 3315 3075 3187 
Q 3219 3059 3219 2893 
Q 3219 2771 3136 2697 
Q 3053 2624 2906 2624 
Q 2790 2624 2713 2675 
Q 2637 2726 2515 2886 
Q 2432 2989 2352 3046 
Q 2272 3104 2182 3129 
Q 2093 3155 1965 3155 
Q 1517 3155 1280 2803 
Q 1043 2451 1043 1766 
Q 1043 1037 1305 653 
Q 1568 269 2061 269 
Q 2323 269 2566 374 
Q 2810 480 3046 717 
z
" transform="scale(0.015625)"/>
      <path id="LibreBaskerville-Regular-76" d="M 1747 -70 
L 666 2598 
Q 563 2861 483 2976 
Q 403 3091 300 3126 
Q 198 3162 32 3168 
L 32 3392 
L 1728 3392 
L 1728 3168 
Q 1562 3162 1466 3149 
Q 1370 3136 1334 3091 
Q 1299 3046 1299 2944 
Q 1299 2842 1328 2742 
Q 1357 2643 1389 2547 
L 2067 691 
L 2093 691 
L 2675 2067 
Q 2810 2387 2867 2582 
Q 2925 2778 2925 2918 
Q 2925 3066 2848 3117 
Q 2771 3168 2515 3168 
L 2515 3392 
L 3789 3392 
L 3789 3168 
Q 3686 3168 3603 3117 
Q 3520 3066 3456 2989 
Q 3392 2899 3315 2726 
Q 3238 2554 3174 2381 
Q 3110 2208 3059 2099 
L 2118 -70 
L 1747 -70 
z
" transform="scale(0.015625)"/>
      <path id="LibreBaskerville-Regular-28" d="M 1798 5318 
L 1997 5139 
Q 1683 4717 1478 4358 
Q 1274 4000 1155 3667 
Q 1037 3334 989 2972 
Q 941 2611 941 2176 
Q 941 1472 1053 902 
Q 1165 333 1411 -144 
Q 1658 -621 2048 -1062 
L 1850 -1242 
Q 1088 -499 694 342 
Q 301 1184 301 2067 
Q 301 2931 681 3756 
Q 1062 4582 1798 5318 
z
" transform="scale(0.015625)"/>
      <path id="LibreBaskerville-Regular-2d" d="M 2470 1587 
L 493 1587 
L 493 2118 
L 2470 2118 
L 2470 1587 
z
" transform="scale(0.015625)"/>
      <path id="LibreBaskerville-Regular-29" d="M 128 5139 
L 326 5318 
Q 1069 4582 1446 3756 
Q 1824 2931 1824 2067 
Q 1824 1184 1430 342 
Q 1037 -499 275 -1242 
L 77 -1062 
Q 474 -621 717 -144 
Q 960 333 1072 902 
Q 1184 1472 1184 2176 
Q 1184 2611 1136 2972 
Q 1088 3334 969 3667 
Q 851 4000 646 4358 
Q 442 4717 128 5139 
z
" transform="scale(0.015625)"/>
     </defs>
     <use xlink:href="#LibreBaskerville-Regular-54"/>
     <use xlink:href="#LibreBaskerville-Regular-6f" x="80.299988"/>
     <use xlink:href="#LibreBaskerville-Regular-74" x="145.699982"/>
     <use xlink:href="#LibreBaskerville-Regular-61" x="183.499969"/>
     <use xlink:href="#LibreBaskerville-Regular-6c" x="238.899963"/>
     <use xlink:href="#LibreBaskerville-Regular-20" x="271.399948"/>
     <use xlink:href="#LibreBaskerville-Regular-6e" x="300.099945"/>
     <use xlink:href="#LibreBaskerville-Regular-75" x="368.999939"/>
     <use xlink:href="#LibreBaskerville-Regular-6d" x="435.999924"/>
     <use xlink:href="#LibreBaskerville-Regular-62" x="543.299911"/>
     <use xlink:href="#LibreBaskerville-Regular-65" x="608.699905"/>
     <use xlink:href="#LibreBaskerville-Regular-72" x="665.999893"/>
     <use xlink:href="#LibreBaskerville-Regular-20" x="713.69989"/>
     <use xlink:href="#LibreBaskerville-Regular-6f" x="742.399887"/>
     <use xlink:href="#LibreBaskerville-Regular-66" x="807.799881"/>
     <use xlink:href="#LibreBaskerville-Regular-20" x="848.999878"/>
     <use xlink:href="#LibreBaskerville-Regular-69" x="877.699875"/>
     <use xlink:href="#LibreBaskerville-Regular-6e" x="911.799866"/>
     <use xlink:href="#LibreBaskerville-Regular-63" x="980.69986"/>
     <use xlink:href="#LibreBaskerville-Regular-69" x="1034.29985"/>
     <use xlink:href="#LibreBaskerville-Regular-64" x="1068.399841"/>
     <use xlink:href="#LibreBaskerville-Regular-65" x="1135.899826"/>
     <use xlink:href="#LibreBaskerville-Regular-6e" x="1193.199814"/>
     <use xlink:href="#LibreBaskerville-Regular-74" x="1262.099808"/>
     <use xlink:href="#LibreBaskerville-Regular-20" x="1299.899796"/>
     <use xlink:href="#LibreBaskerville-Regular-72" x="1328.599792"/>
     <use xlink:href="#LibreBaskerville-Regular-65" x="1376.299789"/>
     <use xlink:href="#LibreBaskerville-Regular-70" x="1433.599777"/>
     <use xlink:href="#LibreBaskerville-Regular-6f" x="1501.499771"/>
     <use xlink:href="#LibreBaskerville-Regular-72" x="1566.899765"/>
     <use xlink:href="#LibreBaskerville-Regular-74" x="1614.599762"/>
     <use xlink:href="#LibreBaskerville-Regular-73" x="1652.39975"/>
     <use xlink:href="#LibreBaskerville-Regular-20" x="1697.799744"/>
     <use xlink:href="#LibreBaskerville-Regular-6f" x="1726.499741"/>
     <use xlink:href="#LibreBaskerville-Regular-66" x="1791.899734"/>
     <use xlink:href="#LibreBaskerville-Regular-20" x="1833.099731"/>
     <use xlink:href="#LibreBaskerville-Regular-70" x="1861.799728"/>
     <use xlink:href="#LibreBaskerville-Regular-72" x="1929.699722"/>
     <use xlink:href="#LibreBaskerville-Regular-6f" x="1977.399719"/>
     <use xlink:href="#LibreBaskerville-Regular-73" x="2042.799713"/>
     <use xlink:href="#LibreBaskerville-Regular-74" x="2088.199707"/>
     <use xlink:href="#LibreBaskerville-Regular-69" x="2125.999695"/>
     <use xlink:href="#LibreBaskerville-Regular-74" x="2160.099686"/>
     <use xlink:href="#LibreBaskerville-Regular-75" x="2197.899673"/>
     <use xlink:href="#LibreBaskerville-Regular-74" x="2264.899658"/>
     <use xlink:href="#LibreBaskerville-Regular-69" x="2302.699646"/>
     <use xlink:href="#LibreBaskerville-Regular-6f" x="2336.799637"/>
     <use xlink:href="#LibreBaskerville-Regular-6e" x="2402.199631"/>
     <use xlink:href="#LibreBaskerville-Regular-20" x="2471.099625"/>
     <use xlink:href="#LibreBaskerville-Regular-6f" x="2499.799622"/>
     <use xlink:href="#LibreBaskerville-Regular-76" x="2565.199615"/>
     <use xlink:href="#LibreBaskerville-Regular-65" x="2626.1996"/>
     <use xlink:href="#LibreBaskerville-Regular-72" x="2683.499588"/>
     <use xlink:href="#LibreBaskerville-Regular-20" x="2731.199585"/>
     <use xlink:href="#LibreBaskerville-Regular-74" x="2759.899582"/>
     <use xlink:href="#LibreBaskerville-Regular-69" x="2797.69957"/>
     <use xlink:href="#LibreBaskerville-Regular-6d" x="2831.799561"/>
     <use xlink:href="#LibreBaskerville-Regular-65" x="2939.099548"/>
     <use xlink:href="#LibreBaskerville-Regular-20" x="2996.399536"/>
     <use xlink:href="#LibreBaskerville-Regular-28" x="3025.099533"/>
     <use xlink:href="#LibreBaskerville-Regular-32" x="3058.29953"/>
     <use xlink:href="#LibreBaskerville-Regular-30" x="3119.899521"/>
     <use xlink:href="#LibreBaskerville-Regular-30" x="3191.299515"/>
     <use xlink:href="#LibreBaskerville-Regular-33" x="3262.699509"/>
     <use xlink:href="#LibreBaskerville-Regular-2d" x="3324.2995"/>
     <use xlink:href="#LibreBaskerville-Regular-32" x="3370.599487"/>
     <use xlink:href="#LibreBaskerville-Regular-30" x="3432.199478"/>
     <use xlink:href="#LibreBaskerville-Regular-32" x="3503.599472"/>
     <use xlink:href="#LibreBaskerville-Regular-35" x="3565.199463"/>
     <use xlink:href="#LibreBaskerville-Regular-29" x="3621.999451"/>
    </g>
   </g>
  </g>
 </g>
 <defs>
  <clipPath id="pe3ce830b40">
   <rect x="57.04125" y="33.833125" width="781.2" height="332.64"/>
  </clipPath>
 </defs>
</svg>
